<svg width="179" height="180" viewBox="0 0 179 180" fill="none" xmlns="http://www.w3.org/2000/svg">
<path d="M127.565 104.906H132.911V93.621C132.911 90.0572 134.931 88.5129 137.188 88.5129C139.841 88.5129 141.623 90.0572 141.623 93.621V104.906H146.968V93.621C146.968 89.6612 148.671 88.5129 151.166 88.5129C153.581 88.5129 155.284 90.0572 155.284 93.621V104.906H160.63V92.3143C160.63 87.127 157.224 83.8403 152.789 83.8403C149.186 83.8403 147.206 85.2263 145.82 87.7209C144.474 85.2263 142.019 83.8403 139.128 83.8403C135.96 83.8403 133.901 85.0283 132.832 87.3249V84.3155H127.565V104.906Z" fill="#757575"/>
<path d="M114.231 105.421C120.606 105.421 125.199 100.59 125.199 94.6505C125.199 88.7109 120.606 83.8403 114.231 83.8403C107.856 83.8403 103.262 88.7109 103.262 94.6505C103.262 100.59 107.856 105.421 114.231 105.421ZM108.608 94.6505C108.608 91.4431 110.825 88.7109 114.231 88.7109C117.636 88.7109 119.854 91.4431 119.854 94.6505C119.854 97.858 117.636 100.551 114.231 100.551C110.825 100.551 108.608 97.858 108.608 94.6505Z" fill="#757575"/>
<path d="M94.4236 105.421C98.4625 105.421 101.314 103.956 103.254 101.461L99.3733 98.0954C98.3042 99.5209 96.9578 100.55 94.8987 100.55C91.4933 100.55 89.157 97.8182 89.157 94.6108C89.157 91.4034 91.3745 88.6711 94.7799 88.6711C96.6014 88.6711 98.1854 89.5819 99.1357 91.0074L103.254 87.6416C101.512 85.2261 98.4625 83.761 94.7008 83.8006C88.4047 83.8402 83.8113 88.6315 83.8113 94.6108C83.8113 100.59 88.5235 105.421 94.4236 105.421Z" fill="#757575"/>
<path d="M79.411 105.421C81.4701 105.421 82.9352 103.837 82.9352 101.937C82.9352 100.076 81.4701 98.4917 79.411 98.4917C77.352 98.4917 75.8472 100.076 75.8472 101.937C75.8472 103.837 77.352 105.421 79.411 105.421Z" fill="#757575"/>
<path d="M68.0526 104.906H73.3983V76H68.0526V104.906Z" fill="#757575"/>
<path d="M53.0367 105.421C56.7193 105.421 58.5804 103.877 59.6891 101.541V104.906H64.8765V84.3155H59.5703V87.5625C58.4616 85.345 56.6005 83.8799 53.0367 83.8799C47.3742 83.8799 42.86 88.7504 42.86 94.6901C42.86 100.63 47.3742 105.421 53.0367 105.421ZM48.2058 94.6505C48.2058 91.4431 50.5024 88.7108 53.9078 88.7108C57.4321 88.7108 59.6891 91.4827 59.6891 94.6901C59.6891 97.8975 57.4321 100.59 53.9078 100.59C50.5024 100.59 48.2058 97.7787 48.2058 94.6505Z" fill="#757575"/>
<path d="M32.4532 105.421C37.2842 105.421 40.848 103.56 42.9466 101.026L38.9077 97.581C37.2842 99.3629 35.2647 100.274 32.572 100.274C27.1075 100.274 23.7417 96.1555 23.7417 91.087C23.7417 86.0184 27.1075 81.8211 32.4532 81.8211C34.9479 81.8211 37.007 82.6922 38.6701 84.4345L42.5903 81.0291C40.0956 78.0593 36.9674 76.6733 32.4532 76.6733C23.9001 76.6733 18 83.1278 18 91.087C18 99.0065 24.2169 105.421 32.4532 105.421Z" fill="#757575"/>
</svg>
