<svg width="179" height="180" viewBox="0 0 179 180" fill="none" xmlns="http://www.w3.org/2000/svg">
<path d="M86.5001 107.9L79.8001 107.1C79.4001 107.1 79.4001 106.5 79.8001 106.4L86.5001 105.6C86.7001 105.6 86.8001 105.5 86.8001 105.3L87.6001 98.2999C87.6001 98.0999 87.5001 97.8999 87.3001 97.8999H78.9001C74.0001 97.8999 70.1001 101.8 70.1001 106.7C70.1001 111.6 74.0001 115.5 78.9001 115.5H87.3001C87.5001 115.5 87.7001 115.3 87.6001 115.1L86.8001 108.1C86.8001 108.1 86.7001 108 86.5001 107.9Z" fill="#757575"/>
<path d="M97.3001 98H88.9001C88.7001 98 88.5001 98.2 88.6001 98.4L89.4001 105.4C89.4001 105.6 89.5001 105.7 89.7001 105.7L96.4001 106.5C96.8001 106.5 96.8001 107.1 96.4001 107.2L89.7001 108C89.5001 108 89.4001 108.1 89.4001 108.3L88.6001 115.3C88.6001 115.5 88.7001 115.7 88.9001 115.7H97.3001C102.2 115.7 106.1 111.8 106.1 106.9C106.1 102 102.2 98 97.3001 98Z" fill="#757575"/>
<path d="M36.9001 101.2L36.3001 104.2C34.9001 103.9 33.6001 105.3 33.2001 107.2C32.8001 109.1 33.5001 111.8 37.0001 112.5C40.4001 113.2 42.2001 111.2 42.6001 109.2C43.0001 107.2 42.4001 105.6 41.0001 105.1L41.6001 102.1C44.6001 102.9 45.5001 105.8 44.7001 109.9C43.8001 114.4 40.8001 116.5 36.4001 115.6C32.1001 114.7 30.1001 111.4 31.0001 106.9C31.8001 103.3 33.9001 100.6 36.9001 101.2Z" fill="#757575"/>
<path d="M34.7001 95.3998L38.3001 88.2998C39.8001 85.2998 41.7001 84.2998 43.8001 85.2998C45.6001 86.1998 46.1001 87.8998 45.2001 90.0998C46.5001 87.7998 47.7001 87.7998 49.4001 88.4998C50.4001 88.8998 51.4001 89.3998 52.5001 89.4998L51.1001 92.3998C50.7001 92.3998 50.1001 92.0998 49.1001 91.6998C46.8001 90.6998 46.0001 90.7998 44.7001 93.3998L43.2001 96.2998L47.9001 98.6998L46.6001 101.4L34.7001 95.3998ZM41.4001 95.4998L43.2001 91.9998C44.1001 90.0998 44.0001 88.9998 42.8001 88.2998C41.7001 87.6998 40.8001 88.1998 39.9001 90.0998L38.0001 93.6998L41.4001 95.4998Z" fill="#757575"/>
<path d="M43.8001 79.4L51.3001 72L52.8001 73.5L47.4001 78.8L49.6001 81L54.8001 75.9L56.3001 77.4L51.1001 82.5L53.7001 85.1L59.3001 79.5L60.8001 81L53.1001 88.7L43.8001 79.4Z" fill="#757575"/>
<path d="M61.4001 66.0998L64.7001 64.2998L77.0001 72.7998L73.9001 74.4998L71.1001 72.5998L64.4001 76.1998L64.6001 79.4998L61.7001 80.9998L61.4001 66.0998ZM63.9001 67.3998L64.2001 73.7998L69.1001 71.1998L63.9001 67.3998Z" fill="#757575"/>
<path d="M70.1001 61.3001L83.0001 58.6001L83.5001 60.7001L78.5001 61.8001L80.8001 72.7001L77.9001 73.3001L75.6001 62.4001L70.6001 63.5001L70.1001 61.3001Z" fill="#757575"/>
<path d="M97.8001 65.5C97.8001 70 95.1001 72.5 90.0001 72.5C84.9001 72.5 82.2001 70.1 82.2001 65.5C82.2001 61 84.9001 58.5 90.0001 58.5C95.1001 58.5 97.8001 61 97.8001 65.5ZM90.1001 70.3C93.0001 70.3 94.8001 68.6 94.8001 65.5C94.8001 62.4 93.1001 60.7 90.1001 60.7C87.2001 60.7 85.5001 62.4 85.5001 65.5C85.4001 68.6 87.2001 70.3 90.1001 70.3Z" fill="#757575"/>
<path d="M101.5 61L109.1 63.5C112.2 64.5 113.6 66.2 112.8 68.5C112.2 70.4 110.6 71.2 108.2 70.6C110.7 71.5 110.8 72.7 110.4 74.5C110.2 75.5 109.8 76.6 109.8 77.7L106.8 76.7C106.8 76.3 106.9 75.6 107.2 74.6C107.9 72.2 107.6 71.4 104.8 70.5L101.7 69.5L100.1 74.5L97.3001 73.6L101.5 61ZM102.5 67.6L106.2 68.8C108.2 69.5 109.3 69.2 109.8 67.9C110.2 66.7 109.6 65.9 107.6 65.3L103.7 64L102.5 67.6Z" fill="#757575"/>
<path d="M123.8 71.6001L128.4 76.0001C131.7 79.2001 132 82.8001 129.1 85.9001C127 88.1001 123.2 89.3001 119.3 85.6001L114.7 81.2001L123.8 71.6001ZM118.3 81.7001L120.5 83.7001C122.9 86.0001 125.4 85.2001 127 83.5001C128.9 81.5001 128.7 79.1001 126.6 77.1001L124.5 75.1001L118.3 81.7001Z" fill="#757575"/>
<path d="M137.7 89.1002L139.3 92.5002L130.3 104.4L128.8 101.2L130.8 98.5002L127.4 91.6002H124.1L122.7 88.7002L137.7 89.1002ZM136.3 91.6002H129.9L132.3 96.6002L136.3 91.6002Z" fill="#757575"/>
<path d="M139.9 115.9C135.5 117.1 132.4 115.1 131.1 110.2C129.8 105.3 131.5 102.1 135.9 100.9C140.3 99.7001 143.4 101.7 144.7 106.6C146 111.5 144.3 114.8 139.9 115.9ZM133.3 109.7C134.1 112.5 136.2 113.8 139.2 113C142.2 112.2 143.4 110.1 142.7 107.2C142 104.4 139.8 103.2 136.8 104C133.7 104.7 132.5 106.9 133.3 109.7Z" fill="#757575"/>
</svg>
