<svg width="179" height="180" viewBox="0 0 179 180" fill="none" xmlns="http://www.w3.org/2000/svg">
<path d="M39.6063 113.956V118.491H45.7434V121.388H39.6063V126.175H46.5659V129.135H36V110.933H46.5659V113.893H39.6063V113.956Z" fill="#757575"/>
<path d="M49.0332 118.05C49.6027 116.917 50.4251 116.035 51.4375 115.468C52.4498 114.838 53.5886 114.586 54.7907 114.586C55.8663 114.586 56.8153 114.775 57.6378 115.216C58.4603 115.657 59.093 116.224 59.5991 116.854V114.775H63.2687V129.198H59.5991V127.057C59.1562 127.749 58.4603 128.316 57.6378 128.757C56.8153 129.198 55.8663 129.45 54.7907 129.45C53.5886 129.45 52.4498 129.135 51.4375 128.505C50.4251 127.875 49.6659 126.994 49.0332 125.86C48.4638 124.726 48.1475 123.404 48.1475 121.955C48.1475 120.444 48.4638 119.184 49.0332 118.05ZM59.0297 119.688C58.6501 119.058 58.2072 118.554 57.6378 118.239C57.0684 117.924 56.4357 117.735 55.7397 117.735C55.0438 117.735 54.4111 117.924 53.8417 118.239C53.2722 118.554 52.8294 119.058 52.4497 119.688C52.0701 120.318 51.9436 121.073 51.9436 121.955C51.9436 122.837 52.1334 123.593 52.4497 124.223C52.8294 124.852 53.2722 125.356 53.8417 125.734C54.4111 126.112 55.0438 126.238 55.7397 126.238C56.4357 126.238 57.0684 126.049 57.6378 125.734C58.2072 125.419 58.7134 124.915 59.0297 124.286C59.4093 123.656 59.5359 122.9 59.5359 122.018C59.5359 121.136 59.4093 120.318 59.0297 119.688Z" fill="#757575"/>
<path d="M71.5574 115.216C72.3166 114.775 73.2024 114.586 74.1514 114.586V118.428H73.2024C72.0635 118.428 71.1778 118.68 70.6083 119.247C70.0389 119.814 69.7226 120.696 69.7226 122.081V129.261H66.053V114.838H69.7226V117.106C70.2287 116.224 70.7982 115.657 71.5574 115.216Z" fill="#757575"/>
<path d="M79.5292 109.926V129.198H75.8596V109.926H79.5292Z" fill="#757575"/>
<path d="M96.2321 114.775L87.2479 136H83.3252L86.4887 128.82L80.668 114.775H84.7804L88.5133 124.852L92.3094 114.775H96.2321Z" fill="#757575"/>
<path d="M110.341 121.388C110.974 122.207 111.353 123.151 111.353 124.222C111.353 125.167 111.1 126.049 110.657 126.804C110.151 127.56 109.455 128.127 108.569 128.505C107.684 128.946 106.608 129.135 105.343 129.135H97.4973V110.933H105.026C106.292 110.933 107.304 111.122 108.253 111.563C109.139 111.941 109.835 112.508 110.278 113.2C110.721 113.893 110.974 114.712 110.974 115.594C110.974 116.664 110.721 117.546 110.151 118.239C109.582 118.932 108.822 119.436 107.873 119.75C108.822 120.065 109.708 120.569 110.341 121.388ZM101.104 118.491H104.457C105.343 118.491 105.975 118.302 106.482 117.924C106.924 117.546 107.177 116.979 107.177 116.224C107.177 115.468 106.924 114.901 106.482 114.523C106.039 114.145 105.343 113.956 104.457 113.956H101.104V118.491ZM106.861 125.608C107.367 125.167 107.62 124.6 107.62 123.844C107.62 123.088 107.367 122.459 106.861 122.018C106.355 121.577 105.659 121.325 104.773 121.325H101.167V126.238H104.836C105.722 126.238 106.418 125.986 106.861 125.608Z" fill="#757575"/>
<path d="M113.757 112.445C113.315 112.067 113.125 111.5 113.125 110.933C113.125 110.367 113.315 109.8 113.757 109.422C114.2 109.044 114.706 108.792 115.339 108.792C115.972 108.792 116.541 108.981 116.921 109.422C117.364 109.8 117.554 110.367 117.554 110.933C117.554 111.5 117.364 112.067 116.921 112.445C116.478 112.823 115.972 113.075 115.339 113.075C114.706 113.075 114.2 112.823 113.757 112.445ZM117.174 114.775V129.198H113.504V114.775H117.174Z" fill="#757575"/>
<path d="M125.526 115.216C126.285 114.775 127.171 114.586 128.12 114.586V118.428H127.171C126.032 118.428 125.146 118.68 124.577 119.247C124.007 119.814 123.691 120.696 123.691 122.081V129.261H120.021V114.838H123.691V117.106C124.197 116.224 124.766 115.657 125.526 115.216Z" fill="#757575"/>
<path d="M129.765 118.05C130.334 116.917 131.157 116.035 132.169 115.468C133.181 114.838 134.32 114.586 135.522 114.586C136.471 114.586 137.357 114.775 138.243 115.216C139.065 115.594 139.761 116.161 140.267 116.854V109.989H144V129.261H140.267V127.057C139.824 127.749 139.192 128.316 138.369 128.757C137.547 129.198 136.598 129.387 135.522 129.387C134.32 129.387 133.181 129.072 132.169 128.442C131.157 127.812 130.334 126.931 129.765 125.797C129.195 124.663 128.879 123.341 128.879 121.892C128.879 120.444 129.195 119.184 129.765 118.05ZM139.761 119.688C139.382 119.058 138.939 118.554 138.369 118.239C137.8 117.924 137.167 117.735 136.471 117.735C135.775 117.735 135.143 117.924 134.573 118.239C134.004 118.554 133.561 119.058 133.181 119.688C132.802 120.318 132.675 121.073 132.675 121.955C132.675 122.837 132.865 123.593 133.181 124.223C133.498 124.852 134.004 125.356 134.573 125.734C135.143 126.112 135.775 126.238 136.471 126.238C137.167 126.238 137.8 126.049 138.369 125.734C138.939 125.419 139.445 124.915 139.761 124.285C140.141 123.656 140.267 122.9 140.267 122.018C140.267 121.136 140.141 120.318 139.761 119.688Z" fill="#757575"/>
<path d="M107.747 48.834L101.42 55.1321C100.914 52.172 99.3322 49.3379 96.5483 47.3855C91.6766 43.8585 84.9069 44.6773 80.6679 48.96L74.5308 55.0692C74.0246 52.0461 72.3164 49.149 69.4693 47.1336C65.4201 44.2994 59.9157 44.2994 55.8664 47.0706C49.4763 51.4163 48.8436 60.2966 54.0949 65.4611L59.0931 70.4366L62.7627 74.0895L72.5694 83.8516L76.239 87.5045L88.3234 99.5339C89.1459 100.353 90.4112 100.353 91.2337 99.5339L125.272 65.587C130.397 60.4855 129.954 51.8571 123.881 47.3855C118.882 43.7956 111.986 44.6143 107.747 48.834ZM57.638 61.8711C54.6011 58.848 55.044 53.6836 58.8401 51.2273C61.1178 49.7788 64.0914 49.8417 66.3058 51.2903C70.1019 53.8096 70.4816 58.911 67.4446 61.9971L63.5853 65.9019C63.0791 66.4688 62.1933 66.4688 61.6239 65.9019L57.638 61.8711ZM93.1951 51.4163C96.9912 53.9355 97.3708 59.037 94.3339 62.1231L77.0615 79.3799C76.5554 79.8837 75.6696 79.8837 75.1002 79.3799L67.1916 71.5072C66.6854 71.0034 66.6854 70.1217 67.1916 69.5548L84.2742 52.5499C86.7416 50.1567 90.4745 49.5898 93.1951 51.4163ZM121.286 62.186L91.1072 92.291C90.2847 93.1098 89.0193 93.1098 88.1968 92.291L80.7944 84.9222C80.2882 84.4184 80.2882 83.5367 80.7944 82.9698L111.67 52.235C114.707 49.2119 119.895 49.5898 122.425 53.3687C124.197 56.1399 123.627 59.8557 121.286 62.186Z" fill="#757575"/>
</svg>
