<svg width="179" height="180" viewBox="0 0 179 180" fill="none" xmlns="http://www.w3.org/2000/svg">
<path d="M119.209 76.2457C120.952 76.2457 122.364 74.8476 122.364 73.1228C122.364 71.3981 120.952 70 119.209 70C117.467 70 116.054 71.3981 116.054 73.1228C116.054 74.8476 117.467 76.2457 119.209 76.2457Z" fill="#757575"/>
<path d="M38.38 95.0633L37.2401 94.5395C36.9958 94.4186 36.833 94.1769 36.833 93.9149V73.3243C36.833 72.5184 36.1613 71.8535 35.3471 71.8535H28.9963C28.63 71.8535 28.345 72.1356 28.345 72.4982V73.1429C28.345 73.3444 28.4264 73.5258 28.5892 73.6466L29.8105 74.3316C30.0141 74.4525 30.1362 74.654 30.1362 74.8958V89.6638C29.2203 90.6511 27.6936 92.0614 23.7448 92.0614C21.119 92.1218 19.4499 90.8525 18.8189 88.1931C24.2333 88.6766 28.1618 87.77 28.06 83.1159C27.9786 79.4692 25.4139 78.1597 21.3429 78.0589C17.3737 78.0589 12.7124 80.4766 12 87.0245C12 92.6255 15.5214 96.0304 21.6889 96.3326C25.2714 96.3326 27.4697 94.8417 29.8513 92.3031L30.1362 91.9203V92.4845V94.9223C30.1362 95.7081 30.7672 96.3326 31.5611 96.3326H38.2171C38.441 96.3326 38.6242 96.1513 38.6242 95.9297V95.4058C38.6242 95.2648 38.5224 95.1238 38.38 95.0633ZM18.4932 83.7405C18.4932 81.8466 19.3888 79.9528 20.9155 79.57C22.1164 79.57 22.7474 80.5371 22.8492 82.5518C22.8492 85.3724 20.7526 86.9641 18.4729 86.9439C18.4932 86.9439 18.4932 85.6344 18.4932 83.7405Z" fill="#757575"/>
<path d="M125.072 94.8218C124.583 94.5196 123.647 93.9353 123.647 93.8346C123.647 93.6935 123.647 83.6803 123.647 83.6803V80.0336C123.647 79.1874 122.955 78.4822 122.079 78.4822H121.53H115.708C115.301 78.4822 114.976 78.8046 114.976 79.2075V79.6911C114.976 79.9127 115.077 80.1142 115.24 80.2552L116.319 80.8999C116.645 81.1014 116.848 81.4439 116.848 81.8267V91.7997C116.38 92.3839 115.688 92.7869 114.731 92.7667C112.309 92.7667 112.167 90.4095 112.167 88.1328V83.7407C112.167 81.0812 111.027 77.8979 105.612 77.8979C102.803 77.8979 101.806 79.0866 100.463 80.6179C100.259 80.8596 99.8722 80.8395 99.689 80.5977C98.5085 79.0464 96.9004 77.8979 94.6614 77.9987C92.0153 78.0793 90.6922 79.3687 89.7151 80.9604C89.2673 81.2223 88.677 81.0611 88.4328 80.5977L87.5779 78.9859C87.354 78.6635 86.9876 78.4822 86.5805 78.4822H81.2679C80.8608 78.4822 80.5351 78.8046 80.5351 79.2075V79.6911C80.5351 79.9127 80.6369 80.1142 80.7997 80.2552L81.8785 80.8999C82.2042 81.1014 82.4077 81.4439 82.4077 81.8267V91.8198C82.0617 92.2631 81.4714 92.7466 80.4537 92.7466C78.4792 92.7466 78.3571 90.3893 78.3571 90.3893C78.3571 90.3893 78.3571 88.5962 78.3571 84.3653C78.3571 79.4292 73.7162 77.8979 69.8895 77.8979C66.0831 77.8979 61.0758 78.8449 61.0758 82.0685C61.0758 85.2921 63.8848 84.9898 63.8848 84.9898C67.9965 84.9898 67.0805 81.0611 67.0805 81.0611C67.0805 81.0611 67.4469 79.6508 69.3399 79.5702C72.0064 79.4694 71.925 82.4916 71.9453 83.6803C71.9453 83.922 72.0471 85.2719 71.1922 85.6144C70.1541 86.0174 69.2992 85.7151 67.3451 86.0778C64.2105 86.6822 62.4803 87.9515 61.5032 89.1805L61.4422 89.0798C61.4422 89.0798 59.6306 92.4645 54.3383 92.4645C48.4354 92.3235 48.9036 84.7481 48.9036 84.7481C48.9036 84.7481 49.0868 79.4896 51.4886 79.4896C51.4886 79.4896 53.1374 79.3889 53.3002 81.3432C53.4631 83.2975 54.0941 84.9495 56.5977 84.9495C59.1217 84.9495 59.4881 82.955 59.4474 82.0282C59.2439 78.0994 51.9364 77.9584 51.9364 77.9584C46.8477 77.9584 42.9192 81.4237 42.5325 87.2262C42.5325 87.2262 42.4918 96.897 51.8957 96.897C56.5163 97.038 60.2412 92.8272 60.2412 92.8272L60.3837 92.6862C60.6483 93.9353 61.7271 96.897 66.2052 96.897C70.0116 96.897 72.4135 93.754 72.4135 93.754C72.4135 93.754 73.879 96.897 77.8686 96.897C80.128 96.897 81.7157 95.8292 82.4077 95.2247C82.4892 95.9299 83.0794 96.494 83.8326 96.494H90.2851C90.6515 96.494 90.9364 96.212 90.9364 95.8493V95.3658C90.9364 95.1441 90.8143 94.9427 90.6311 94.8218C90.1426 94.5196 89.2063 93.9353 89.2063 93.8346C89.2063 93.6935 89.2063 83.6803 89.2063 83.6803C89.2063 83.6803 89.247 81.5446 92.056 81.5446C94.6817 81.5446 94.58 84.0429 94.58 84.0429V95.3255C94.58 95.9702 95.1092 96.494 95.7605 96.494H102.62C102.864 96.494 103.068 96.2925 103.068 96.0508V95.2449C103.068 95.0837 102.987 94.9427 102.864 94.8621L101.175 93.8346V83.8817C101.175 83.8817 101.155 81.5446 103.943 81.5446C106.732 81.5446 106.508 83.8414 106.508 83.8414L106.711 91.5176C106.711 94.2577 108.747 96.494 111.515 96.494H111.8C112.96 96.494 114.141 96.4537 116.828 94.7009V95.0837C116.828 95.8694 117.459 96.494 118.253 96.494H124.705C125.072 96.494 125.357 96.212 125.357 95.8493V95.3658C125.377 95.1441 125.255 94.9427 125.072 94.8218ZM68.8107 93.6532C65.7981 93.6532 66.4495 91.6385 66.4495 91.6385C66.5106 91.5579 66.2052 87.6896 71.294 87.6896C71.986 87.6896 71.8842 89.4021 71.8842 90.2886C71.8842 90.9938 72.4338 93.6532 68.8107 93.6532Z" fill="#757575"/>
<path d="M158.616 77.7368C153.426 77.7368 149.233 82.0081 149.233 87.2867C149.233 88.9589 149.66 90.5304 150.393 91.8803C150.129 92.2833 149.538 92.8675 148.337 92.8675C146.505 92.8675 145.589 91.3968 145.589 89.6842C145.589 87.9717 145.589 84.1638 145.589 84.1638C145.488 82.814 145.223 81.585 144.531 80.6179C143.676 79.0061 141.254 77.9181 139.015 78.0189C136.369 78.0995 135.046 79.3889 134.068 80.9805C133.621 81.2425 133.03 81.0813 132.786 80.6179L131.931 79.0061C131.707 78.6837 131.341 78.5024 130.934 78.5024H125.621C125.214 78.5024 124.888 78.8248 124.888 79.2277V79.7113C124.888 79.9329 124.99 80.1344 125.153 80.2754L126.232 80.9201C126.558 81.1216 126.761 81.4641 126.761 81.8469V95.1039C126.761 95.8896 127.392 96.5142 128.186 96.5142H134.638C135.005 96.5142 135.29 96.2321 135.29 95.8695V95.386C135.29 95.1643 135.168 94.9629 134.984 94.842C134.496 94.5398 133.56 93.9555 133.56 93.8548C133.56 93.7137 133.56 83.7004 133.56 83.7004C133.56 83.7004 133.6 81.5648 136.409 81.5648C139.035 81.5648 138.933 84.0631 138.933 84.0631V90.2484C138.933 90.2484 139.035 96.6955 145.101 96.6955C148.398 96.6955 150.434 95.1039 151.614 93.6533C153.324 95.6076 155.828 96.8366 158.616 96.8366C163.807 96.8366 168 92.5653 168 87.2867C168 82.0081 163.787 77.7368 158.616 77.7368ZM160.163 94.7412C158.332 95.124 156.133 92.0818 155.278 87.9516C154.403 83.8213 155.177 80.1747 157.008 79.7918C158.84 79.409 161.039 82.4513 161.894 86.5815C162.769 90.7118 161.995 94.3786 160.163 94.7412Z" fill="#757575"/>
<path d="M72.5964 108.421C73.3089 108.139 73.7974 107.474 73.7974 106.668C73.7974 105.62 72.9425 104.794 71.9044 104.794H69.4618C69.4414 104.794 69.4007 104.794 69.3804 104.794C69.36 104.794 69.3193 104.794 69.2989 104.794C68.9733 104.835 68.729 105.097 68.729 105.439V110.194C68.729 110.536 68.9733 110.839 69.3193 110.859C69.706 110.899 70.0317 110.597 70.0317 110.214V108.562H70.8663L72.8407 110.758C73.085 111.04 73.5328 111.06 73.8177 110.819C74.1027 110.557 74.1231 110.134 73.8788 109.851L72.5964 108.421ZM72.2504 107.252C72.1079 107.393 71.9451 107.474 71.7415 107.494C71.7212 107.494 71.7008 107.494 71.6805 107.494H70.0317V106.023V105.862H70.2149H70.3167H71.7008C72.1486 105.862 72.515 106.225 72.515 106.668C72.4947 106.91 72.3929 107.111 72.2504 107.252Z" fill="#757575"/>
<path d="M60.7703 104.794H59.1215H57.7374H56.0886C55.7833 104.794 55.5391 105.036 55.5391 105.338C55.5391 105.641 55.7833 105.882 56.0886 105.882H57.7374V110.174C57.7374 110.557 58.0427 110.859 58.4295 110.859C58.8162 110.859 59.1215 110.557 59.1215 110.174V105.882H60.7703C61.0756 105.882 61.3199 105.641 61.3199 105.338C61.3199 105.036 61.0552 104.794 60.7703 104.794Z" fill="#757575"/>
<path d="M123.972 109.771H121.347V104.794H119.962V110.174C119.962 110.194 119.962 110.214 119.962 110.254C119.962 110.275 119.962 110.295 119.962 110.335C119.962 110.637 120.207 110.879 120.512 110.879H123.972C124.278 110.879 124.522 110.637 124.522 110.335C124.522 110.013 124.278 109.771 123.972 109.771Z" fill="#757575"/>
<path d="M111.658 105.882C111.963 105.882 112.207 105.641 112.207 105.338C112.207 105.036 111.963 104.794 111.658 104.794H109.032H108.197H107.648V110.174C107.648 110.194 107.648 110.214 107.648 110.254C107.648 110.275 107.648 110.295 107.648 110.335C107.648 110.637 107.892 110.879 108.197 110.879H111.658C111.963 110.879 112.207 110.637 112.207 110.335C112.207 110.033 111.963 109.791 111.658 109.791H109.032V108.32H111.189C111.495 108.32 111.739 108.078 111.739 107.776C111.739 107.474 111.495 107.232 111.189 107.232H109.032V105.882H111.658Z" fill="#757575"/>
<path d="M84.7077 104.875C84.6059 104.654 84.382 104.533 84.1378 104.533C83.8935 104.533 83.6696 104.674 83.5678 104.895L81.0642 110.114C80.9217 110.416 81.0438 110.799 81.3695 110.94C81.4509 110.98 81.5527 111 81.6341 111C81.858 111 82.0819 110.879 82.204 110.637L82.7333 109.529H85.5626L86.1122 110.637C86.2547 110.94 86.6414 111.081 86.9467 110.919C87.2521 110.778 87.3945 110.396 87.2317 110.093L84.7077 104.875ZM83.2421 108.482L84.1581 106.568L85.0944 108.482H83.2421Z" fill="#757575"/>
<path d="M99.8312 104.593C99.5259 104.452 99.1392 104.573 98.9967 104.896L97.063 108.945L95.0885 104.896C94.946 104.593 94.5593 104.452 94.254 104.613C93.9487 104.755 93.8062 105.137 93.969 105.44L96.5134 110.658C96.6151 110.879 96.839 111 97.0833 111C97.3276 111 97.5515 110.859 97.6532 110.638L100.157 105.419C100.279 105.097 100.137 104.734 99.8312 104.593Z" fill="#757575"/>
</svg>
