<svg width="180" height="180" viewBox="0 0 180 180" fill="none" xmlns="http://www.w3.org/2000/svg">
<path d="M41.1243 85.0859L41.0979 85.0859L41.0995 96.1559L43.2081 96.1556L43.2075 92.0966L47.2929 92.096L47.2926 89.9875L43.2072 89.9881L43.2068 87.1942L48.2674 87.1935L48.2671 85.0849L41.1243 85.0859Z" fill="#757575"/>
<path d="M147.765 85.071L145.657 85.0713L145.658 96.1413L147.767 96.141L147.765 85.071Z" fill="#757575"/>
<path d="M72.9647 91.6444C72.9649 92.9887 71.8844 94.0695 70.5402 94.0697C69.1959 94.0698 68.1151 92.9894 68.1149 91.6451L68.114 85.1086L66.0054 85.1089L66.0064 92.1462C66.0068 94.3866 67.8257 96.1786 70.0397 96.1783L71.0676 96.1781C73.2816 96.1778 75.0736 94.3589 75.0733 92.1449L75.0723 85.0812L72.9637 85.0815L72.9647 91.6444Z" fill="#757575"/>
<path d="M96.7115 85.078L92.7316 85.0786L92.7319 87.1872L92.7329 94.0927L92.7332 96.1486L92.7332 96.2013L96.7395 96.1744C99.7969 96.1476 102.248 93.6697 102.247 90.6122C102.273 87.5812 99.7953 85.0776 96.7115 85.078ZM96.4229 94.1186L94.8415 94.1188L94.8405 87.2132L96.4219 87.213C98.3196 87.2127 99.8749 88.7676 99.8752 90.6653C99.8755 92.563 98.347 94.1183 96.4229 94.1186Z" fill="#757575"/>
<path d="M107.941 91.6656L111.736 91.6651L111.736 89.5565L107.94 89.5571L107.94 87.1849L113.001 87.1842L113 85.0756L105.857 85.0767L105.831 85.0767L105.833 96.1467L105.859 96.1467L107.941 96.1464L113.292 96.1456L113.291 94.037L107.941 94.0378L107.941 91.6656Z" fill="#757575"/>
<path d="M56.6223 84.8996C53.4595 84.9 50.9032 87.457 50.9036 90.6199C50.9041 93.7827 53.4611 96.339 56.624 96.3386C59.7868 96.3381 62.3431 93.7811 62.3426 90.6182C62.3158 87.4818 59.7588 84.8991 56.6223 84.8996ZM56.6237 94.23C54.6205 94.2303 53.0125 92.6227 53.0122 90.6196C53.0119 88.6164 54.6195 87.0084 56.6226 87.0081C58.6258 87.0079 60.2338 88.6154 60.2341 90.6186C60.2344 92.6217 58.6005 94.2297 56.6237 94.23Z" fill="#757575"/>
<path d="M123.043 91.98C124.256 91.4263 125.099 90.2137 125.099 88.7905C125.098 86.84 123.517 85.2852 121.593 85.2855L119.01 85.2858L116.901 85.2861L116.903 96.1716L119.011 96.1713L119.011 92.2968L120.777 92.2966L123.466 96.1707L126.075 96.1703L123.043 91.98ZM121.198 90.1879L119.01 90.1883L119.01 87.368L121.198 87.3677C121.962 87.3676 122.595 88.0001 122.595 88.7645C122.595 89.5552 121.962 90.1878 121.198 90.1879Z" fill="#757575"/>
<path d="M138.621 99.0416L140.361 99.0413L141.23 94.1124C141.23 94.1124 138.7 94.1128 138.621 94.1128L138.621 99.0416Z" fill="#757575"/>
<path d="M132.821 89.6328C132.215 89.343 130.845 88.6843 131.319 87.7617C131.793 86.8391 133.322 86.3908 134.429 88.0775C135.589 87.4184 136.116 87.0494 136.116 87.0494C136.116 87.0494 135.14 84.9673 132.715 84.9676C130.29 84.968 128.841 86.655 128.841 88.1574C128.842 91.4257 134.14 91.2404 134.14 93.0854C134.14 94.456 132.453 94.4826 132.453 94.4826C131.32 94.43 130.555 93.9557 129.923 92.8752C129.923 92.8752 128.315 94.0351 128.368 94.0351C128.42 94.0351 129.607 96.5916 132.48 96.433C132.48 96.433 136.354 96.5906 136.354 93.0851C136.353 90.1595 133.428 89.9227 132.821 89.6328Z" fill="#757575"/>
<path d="M178.464 96.4573C179.312 96.3196 179.887 95.5208 179.749 94.673C179.612 93.8253 178.813 93.2497 177.965 93.3874C177.117 93.5251 176.542 94.3239 176.679 95.1717C176.817 96.0194 177.616 96.595 178.464 96.4573Z" fill="#757575"/>
<path d="M170.513 94.3452C168.51 94.3454 166.875 92.7115 166.875 90.7084C166.875 88.7053 168.509 87.0709 170.512 87.0706C171.856 87.0704 173.042 87.8082 173.649 88.8888L175.309 87.8606C174.307 86.1212 172.436 84.9354 170.301 84.9357C167.111 84.9362 164.529 87.5195 164.529 90.7087C164.53 93.8979 167.113 96.4806 170.302 96.4801C172.516 96.4798 174.44 95.2144 175.415 93.3956L173.675 92.4997C173.043 93.5804 171.857 94.345 170.513 94.3452Z" fill="#757575"/>
<path d="M0.00799839 90.6534L26.42 105.673L26.4193 100.823L4.22479 88.2279L0.00799839 90.6534Z" fill="#757575"/>
<path d="M12.8436 88.2265L26.4164 80.4492L26.4157 75.5204L8.91602 85.7759L12.8436 88.2265Z" fill="#757575"/>
<path d="M26.4186 95.8945L26.4171 85.0881L17.351 90.598L26.4186 95.8945Z" fill="#757575"/>
<path d="M86.4069 91.9587L81.4246 86.5562L80.1856 85.2386C80.0801 85.1332 79.9484 85.0805 79.8166 85.0805C79.5267 85.0805 79.3158 85.3178 79.3159 85.5813L79.3174 96.1505L81.4259 96.1502L81.425 89.4819L86.4073 94.8053L87.4353 95.9122C87.5408 96.0439 87.7253 96.0966 87.8834 96.0966C88.2261 96.0965 88.4896 95.8066 88.4896 95.4903L88.4881 85.0265L86.3795 85.0268L86.3805 91.9587L86.4069 91.9587Z" fill="#757575"/>
<path d="M159.073 91.9485L154.091 86.546L152.852 85.2283C152.747 85.1229 152.615 85.0702 152.483 85.0702C152.193 85.0703 151.982 85.3075 151.983 85.5711L151.984 96.1403L154.093 96.14L154.092 89.4716L159.074 94.7951L160.102 95.9019C160.207 96.0337 160.392 96.0864 160.55 96.0863C160.893 96.0863 161.156 95.7963 161.156 95.48L161.155 85.0163L159.046 85.0166L159.047 91.9485L159.073 91.9485Z" fill="#757575"/>
</svg>
