<svg width="179" height="180" viewBox="0 0 179 180" fill="none" xmlns="http://www.w3.org/2000/svg">
<path fill-rule="evenodd" clip-rule="evenodd" d="M34.2105 80.5245C36.8266 80.5245 38.9474 78.4037 38.9474 75.7876C38.9474 73.1715 36.8266 71.0508 34.2105 71.0508C31.5944 71.0508 29.4737 73.1715 29.4737 75.7876C29.4737 76.7145 29.7399 77.5792 30.2 78.3094L21.6987 86.8108C20.9608 86.1732 19.9991 85.7876 18.9474 85.7876C16.622 85.7876 14.7368 87.6727 14.7368 89.9981C14.7368 90.1782 14.7481 90.3556 14.7701 90.5297L8.10764 92.6117C7.47857 91.0782 5.97067 89.9981 4.21053 89.9981C1.88512 89.9981 0 91.8833 0 94.2087C0 96.5341 1.88512 98.4192 4.21053 98.4192C6.53594 98.4192 8.42105 96.5341 8.42105 94.2087C8.42105 94.012 8.40757 93.8185 8.38147 93.629L15.0323 91.5506C15.6502 93.1077 17.1702 94.2087 18.9474 94.2087C20.0635 94.2087 21.0782 93.7744 21.8317 93.0656L29.9953 102.046C29.6619 102.694 29.4737 103.429 29.4737 104.209C29.4737 106.825 31.5944 108.945 34.2105 108.945C36.8266 108.945 38.9474 106.825 38.9474 104.209C38.9474 101.593 36.8266 99.4718 34.2105 99.4718C32.7631 99.4718 31.4673 100.121 30.5984 101.144L22.5087 92.2454C22.8312 91.7354 23.0472 91.1513 23.1253 90.5245H31.6079C31.8697 92.8929 33.8776 94.735 36.3158 94.735C38.9319 94.735 41.0526 92.6142 41.0526 89.9981C41.0526 87.3821 38.9319 85.2613 36.3158 85.2613C33.8776 85.2613 31.8697 87.1034 31.6079 89.4718H23.1253C23.039 88.7796 22.7846 88.1395 22.4043 87.5938L30.861 79.1371C31.7183 79.9943 32.9025 80.5245 34.2105 80.5245ZM34.2105 79.4718C36.2453 79.4718 37.8947 77.8224 37.8947 75.7876C37.8947 73.7529 36.2453 72.1034 34.2105 72.1034C32.1758 72.1034 30.5263 73.7529 30.5263 75.7876C30.5263 77.8224 32.1758 79.4718 34.2105 79.4718ZM36.8421 75.7876C36.8421 77.241 35.6639 78.4192 34.2105 78.4192C32.7571 78.4192 31.5789 77.241 31.5789 75.7876C31.5789 74.3342 32.7571 73.156 34.2105 73.156C35.6639 73.156 36.8421 74.3342 36.8421 75.7876ZM32.6316 89.9981C32.6316 92.0329 34.2811 93.6824 36.3158 93.6824C38.3505 93.6824 40 92.0329 40 89.9981C40 87.9634 38.3505 86.3139 36.3158 86.3139C34.2811 86.3139 32.6316 87.9634 32.6316 89.9981ZM38.9474 89.9981C38.9474 91.4515 37.7692 92.6297 36.3158 92.6297C34.8624 92.6297 33.6842 91.4515 33.6842 89.9981C33.6842 88.5448 34.8624 87.3666 36.3158 87.3666C37.7692 87.3666 38.9474 88.5448 38.9474 89.9981ZM37.8947 104.209C37.8947 106.243 36.2453 107.893 34.2105 107.893C32.1758 107.893 30.5263 106.243 30.5263 104.209C30.5263 102.174 32.1758 100.525 34.2105 100.525C36.2453 100.525 37.8947 102.174 37.8947 104.209ZM34.2105 106.84C35.6639 106.84 36.8421 105.662 36.8421 104.209C36.8421 102.755 35.6639 101.577 34.2105 101.577C32.7571 101.577 31.5789 102.755 31.5789 104.209C31.5789 105.662 32.7571 106.84 34.2105 106.84ZM62.4684 81.2402V84.5402C62.1484 84.9402 61.6684 85.3402 61.0284 85.7402C60.4018 86.1402 59.6484 86.4735 58.7684 86.7402C57.8884 86.9935 56.9084 87.1202 55.8284 87.1202C54.3084 87.1202 52.9818 86.8269 51.8484 86.2402C50.7151 85.6402 49.8351 84.7935 49.2084 83.7002C48.5817 82.6069 48.2684 81.3135 48.2684 79.8202C48.2684 78.3269 48.5751 77.0402 49.1884 75.9602C49.8151 74.8802 50.7018 74.0469 51.8484 73.4602C53.0084 72.8602 54.3751 72.5602 55.9484 72.5602C56.6818 72.5602 57.3951 72.6136 58.0884 72.7202C58.7817 72.8136 59.4217 72.9402 60.0084 73.1002C60.5951 73.2602 61.0818 73.4469 61.4684 73.6602L61.5084 77.0802H61.3284C61.0751 76.1736 60.7084 75.4536 60.2284 74.9202C59.7484 74.3736 59.1884 73.9869 58.5484 73.7602C57.9218 73.5202 57.2551 73.4002 56.5484 73.4002C55.4684 73.4002 54.5484 73.6669 53.7884 74.2002C53.0418 74.7202 52.4751 75.4669 52.0884 76.4402C51.7151 77.4136 51.5284 78.5802 51.5284 79.9402C51.5284 81.2202 51.7018 82.3402 52.0484 83.3002C52.4084 84.2469 52.9284 84.9802 53.6084 85.5002C54.2884 86.0069 55.1151 86.2669 56.0884 86.2802C56.5818 86.2802 57.0551 86.2069 57.5084 86.0602C57.9751 85.9002 58.3818 85.6735 58.7284 85.3802C59.0751 85.0869 59.3218 84.7269 59.4684 84.3002L59.4884 81.2402C59.4884 80.6402 59.1484 80.3402 58.4684 80.3402H58.1484V80.1402H63.7684V80.3402H63.4684C62.7751 80.3402 62.4418 80.6402 62.4684 81.2402ZM68.4747 76.1002V86.0402H70.8347C71.408 86.0402 71.9147 85.9269 72.3547 85.7002C72.808 85.4602 73.1947 85.1269 73.5147 84.7002C73.8347 84.2602 74.0813 83.7469 74.2547 83.1602H74.4547L73.6747 86.8402H73.6147H70.2147H68.4747H68.4347H65.7347H65.5947H64.2547V86.6402H64.3747H64.5147C64.808 86.6402 65.0547 86.5402 65.2547 86.3402C65.468 86.1269 65.5813 85.8735 65.5947 85.5802V76.1002C65.5813 75.7936 65.468 75.5402 65.2547 75.3402C65.0413 75.1402 64.788 75.0402 64.4947 75.0402H64.3547H64.2547V74.8402H65.5947H65.6347H68.4347H68.4747H69.8147V75.0402H69.6747H69.5747C69.2813 75.0402 69.028 75.1402 68.8147 75.3402C68.6013 75.5402 68.488 75.7936 68.4747 76.1002ZM85.2261 75.0202C84.3594 74.7269 83.3927 74.5802 82.3261 74.5802C81.2727 74.5802 80.3127 74.7269 79.4461 75.0202C78.5794 75.3002 77.8327 75.7136 77.2061 76.2602C76.5794 76.8069 76.0994 77.4669 75.7661 78.2402C75.4327 79.0136 75.2661 79.8869 75.2661 80.8602C75.2661 81.8202 75.4327 82.6869 75.7661 83.4602C76.0994 84.2202 76.5794 84.8735 77.2061 85.4202C77.8327 85.9669 78.5794 86.3869 79.4461 86.6802C80.3127 86.9602 81.2727 87.1002 82.3261 87.1002C83.3927 87.1002 84.3594 86.9602 85.2261 86.6802C86.0927 86.3869 86.8394 85.9669 87.4661 85.4202C88.0927 84.8735 88.5727 84.2202 88.9061 83.4602C89.2527 82.6869 89.4261 81.8202 89.4261 80.8602C89.4261 79.8869 89.2527 79.0136 88.9061 78.2402C88.5727 77.4669 88.0927 76.8069 87.4661 76.2602C86.8394 75.7136 86.0927 75.3002 85.2261 75.0202ZM84.4461 85.6602C83.8461 86.1002 83.1394 86.3202 82.3261 86.3202C81.5261 86.3202 80.8261 86.1002 80.2261 85.6602C79.6261 85.2069 79.1594 84.5735 78.8261 83.7602C78.4927 82.9469 78.3261 81.9802 78.3261 80.8602C78.3261 79.7269 78.4927 78.7536 78.8261 77.9402C79.1594 77.1136 79.6261 76.4802 80.2261 76.0402C80.8261 75.5869 81.5261 75.3602 82.3261 75.3602C83.1394 75.3602 83.8461 75.5869 84.4461 76.0402C85.0594 76.4802 85.5261 77.1136 85.8461 77.9402C86.1794 78.7536 86.3461 79.7269 86.3461 80.8602C86.3461 81.9802 86.1794 82.9469 85.8461 83.7602C85.5261 84.5735 85.0594 85.2069 84.4461 85.6602ZM94.5386 74.8402H95.7786C96.2986 74.8402 96.8252 74.8802 97.3586 74.9602C97.8919 75.0402 98.3786 75.1869 98.8186 75.4002C99.2586 75.6136 99.6119 75.9136 99.8786 76.3002C100.145 76.6869 100.279 77.1936 100.279 77.8202C100.279 78.3269 100.172 78.7602 99.9586 79.1202C99.7452 79.4802 99.4719 79.7602 99.1386 79.9602C98.8052 80.1602 98.4519 80.2735 98.0786 80.3002C98.6652 80.3402 99.1919 80.4935 99.6586 80.7602C100.125 81.0269 100.499 81.3869 100.779 81.8402C101.072 82.2802 101.219 82.8069 101.219 83.4202C101.219 84.0469 101.085 84.5802 100.819 85.0202C100.552 85.4469 100.185 85.8002 99.7186 86.0802C99.2519 86.3469 98.7119 86.5402 98.0986 86.6602C97.4986 86.7802 96.8652 86.8402 96.1986 86.8402H94.5386H94.3986H91.7586H91.6986H90.3986V86.6402H90.4986H90.6186C90.9386 86.6402 91.1986 86.5402 91.3986 86.3402C91.5868 86.152 91.6868 85.9326 91.6986 85.6821V85.5802V76.1002V75.9901C91.6868 75.7216 91.5868 75.5049 91.3986 75.3402C91.1986 75.1402 90.9386 75.0402 90.6186 75.0402H90.4986H90.3986V74.8402H91.6986H91.7586H92.4586H94.5386ZM95.3586 86.0402H94.5386V75.6202H95.1186C95.7452 75.6202 96.2652 75.8002 96.6786 76.1602C97.0919 76.5069 97.2986 77.1269 97.2986 78.0202C97.2986 78.4336 97.2386 78.7869 97.1186 79.0802C97.0119 79.3736 96.8586 79.6136 96.6586 79.8002C96.4719 79.9736 96.2452 80.1069 95.9786 80.2002C95.7119 80.2802 95.4319 80.3202 95.1386 80.3202V80.5002C95.5519 80.5002 95.9319 80.5535 96.2786 80.6602C96.6252 80.7669 96.9252 80.9335 97.1786 81.1602C97.4319 81.3735 97.6252 81.6602 97.7586 82.0202C97.9052 82.3669 97.9786 82.7735 97.9786 83.2402C97.9786 83.9202 97.8586 84.4669 97.6186 84.8802C97.3786 85.2935 97.0586 85.5935 96.6586 85.7802C96.2719 85.9535 95.8386 86.0402 95.3586 86.0402ZM113.268 85.5202L107.929 74.3002H107.769C107.756 74.4336 107.702 74.6202 107.609 74.8602C107.516 75.0869 107.416 75.3336 107.309 75.6002C107.202 75.8536 107.102 76.0869 107.009 76.3002C106.916 76.5002 106.856 76.6402 106.829 76.7202L102.735 85.5202H102.729C102.542 85.9335 102.302 86.2269 102.009 86.4002C101.716 86.5602 101.436 86.6402 101.169 86.6402H101.089H101.009V86.8402H105.009V86.6402H104.849C104.622 86.6402 104.416 86.5469 104.229 86.3602C104.052 86.171 104.025 85.9102 104.147 85.5777L104.955 83.7002H109.181L110.033 85.7119C110.102 85.9811 110.061 86.1972 109.909 86.3602C109.722 86.5469 109.516 86.6402 109.289 86.6402H109.129V86.8402H114.9H115.009H116.24H116.38H119.08H119.12H120.86H124.26H124.32L125.1 83.1602H124.9C124.727 83.7469 124.48 84.2602 124.16 84.7002C123.84 85.1269 123.453 85.4602 123 85.7002C122.56 85.9269 122.053 86.0402 121.48 86.0402H119.12V76.1002C119.133 75.7936 119.247 75.5402 119.46 75.3402C119.673 75.1402 119.927 75.0402 120.22 75.0402H120.32H120.46V74.8402H119.12H119.08H116.28H116.24H114.9V75.0402H115H115.14C115.433 75.0402 115.687 75.1402 115.9 75.3402C116.113 75.5402 116.227 75.7936 116.24 76.1002V85.5802C116.227 85.8735 116.113 86.1269 115.9 86.3402C115.7 86.5402 115.453 86.6402 115.16 86.6402H115.02H115.009H114.929H114.9H114.849C114.582 86.6402 114.302 86.5602 114.009 86.4002C113.716 86.2269 113.468 85.9335 113.268 85.5202ZM108.85 82.9202L107.085 78.7533L105.291 82.9202H108.85ZM54.9484 89.6823H52.8084H52.5484H49.8684H49.8084H48.2684L48.2884 89.8823H48.4084H48.5284C48.8751 89.8823 49.1751 90.009 49.4284 90.2623C49.6818 90.5023 49.8084 90.7957 49.8084 91.1423V102.222C49.7951 102.569 49.6618 102.869 49.4084 103.122C49.1684 103.362 48.8751 103.482 48.5284 103.482H48.3884H48.2684V103.682H49.8084H49.8684H52.7484H52.8084H54.3484V103.482H54.2084H54.0884C53.7418 103.482 53.4417 103.362 53.1884 103.122C52.9484 102.869 52.8218 102.569 52.8084 102.222V90.5223H54.1284C54.9417 90.5223 55.5684 90.7823 56.0084 91.3023C56.4618 91.809 56.6951 92.489 56.7084 93.3423C56.7218 93.529 56.7151 93.7357 56.6884 93.9623C56.6751 94.1757 56.6418 94.369 56.5884 94.5423C56.4551 95.049 56.2618 95.4557 56.0084 95.7623C55.7551 96.069 55.4818 96.2957 55.1884 96.4423C54.9084 96.589 54.6351 96.689 54.3684 96.7423C54.1151 96.7957 53.9018 96.8223 53.7284 96.8223H53.4884V97.0223C54.0618 97.3957 54.6484 97.629 55.2484 97.7223C55.8618 97.8023 56.4484 97.7623 57.0084 97.6023C57.5817 97.429 58.0884 97.1557 58.5284 96.7823C58.9684 96.409 59.3151 95.9423 59.5684 95.3823C59.8218 94.8223 59.9351 94.2023 59.9084 93.5223C59.8818 92.789 59.6884 92.1357 59.3284 91.5623C58.9818 90.9757 58.4484 90.5157 57.7284 90.1823C57.0218 89.849 56.0951 89.6823 54.9484 89.6823ZM65.2353 91.6823H67.1953C67.742 91.6823 68.2753 91.7423 68.7953 91.8623C69.3153 91.969 69.782 92.149 70.1953 92.4023C70.6086 92.6423 70.9353 92.9757 71.1753 93.4023C71.4286 93.8157 71.5553 94.3357 71.5553 94.9623C71.5553 95.429 71.4553 95.8957 71.2553 96.3623C71.0686 96.8157 70.7686 97.209 70.3553 97.5423C69.9553 97.8757 69.4286 98.0957 68.7753 98.2023C69.162 98.3223 69.5286 98.5557 69.8753 98.9023C70.2353 99.249 70.5153 99.5757 70.7153 99.8823C70.7686 99.989 70.862 100.162 70.9953 100.402C71.1286 100.629 71.2953 100.896 71.4953 101.202C71.7086 101.496 71.9286 101.802 72.1553 102.122C72.422 102.482 72.6553 102.762 72.8553 102.962C73.0553 103.149 73.262 103.282 73.4753 103.362C73.6739 103.437 73.9013 103.477 74.1576 103.482C74.4342 103.473 74.6681 103.374 74.8594 103.182C75.0727 102.969 75.186 102.716 75.1994 102.422V92.9423C75.186 92.6357 75.0727 92.3823 74.8594 92.1823C74.6594 91.9823 74.4127 91.8823 74.1194 91.8823H73.9794H73.8594V91.6823H75.1994H75.3394H78.0394H78.0794H80.8794C81.266 91.6823 81.6727 91.649 82.0994 91.5823C82.526 91.5023 82.8194 91.4357 82.9794 91.3823V91.6823V91.8623V92.4423V92.4823V94.5623H82.7794V94.3823C82.7794 93.7957 82.6194 93.3357 82.2994 93.0023C81.9927 92.669 81.546 92.4957 80.9594 92.4823H78.0794V97.3423H80.3594C80.826 97.329 81.1927 97.1757 81.4594 96.8823C81.7394 96.5757 81.8794 96.2023 81.8794 95.7623V95.6223H82.0794V97.3423V97.3823V98.1023V98.1423V99.8623H81.8794V99.7023C81.8794 99.2623 81.7394 98.8957 81.4594 98.6023C81.1927 98.309 80.826 98.1557 80.3594 98.1423H78.0794V102.882H80.4394C81.0127 102.882 81.5194 102.769 81.9594 102.542C82.4127 102.302 82.7994 101.969 83.1194 101.542C83.4394 101.102 83.686 100.589 83.8594 100.002H84.0394L83.2794 103.682H83.2194H79.8194H78.0794H78.0394H75.3394H75.1994H74.2153H73.8594H72.5353C71.8153 103.682 71.202 103.629 70.6953 103.522C70.202 103.416 69.7686 103.222 69.3953 102.942C69.0353 102.649 68.702 102.256 68.3953 101.762C68.2753 101.589 68.1486 101.382 68.0153 101.142L67.6153 100.382C67.482 100.129 67.362 99.8823 67.2553 99.6423C67.162 99.4023 67.0953 99.2023 67.0553 99.0423C66.882 98.6157 66.682 98.309 66.4553 98.1223C66.242 97.9223 66.042 97.8223 65.8553 97.8223V97.6423H65.9953H66.3553C66.6353 97.6423 66.9086 97.5957 67.1753 97.5023C67.4553 97.3957 67.7086 97.2023 67.9353 96.9223C68.162 96.629 68.3286 96.2023 68.4353 95.6423C68.462 95.5623 68.482 95.449 68.4953 95.3023C68.522 95.1557 68.5286 94.989 68.5153 94.8023C68.4886 94.309 68.3953 93.9157 68.2353 93.6223C68.0886 93.3157 67.902 93.089 67.6753 92.9423C67.4486 92.7823 67.2153 92.6757 66.9753 92.6223C66.7486 92.5557 66.5486 92.5223 66.3753 92.5223C66.122 92.509 65.8886 92.509 65.6753 92.5223C65.4875 92.5223 65.3408 92.5164 65.2353 92.5047V102.422C65.2353 102.756 65.3486 103.016 65.5753 103.202C65.8153 103.389 66.0686 103.482 66.3353 103.482H66.4153H66.5353V103.682H65.2353H65.0953H62.4753H62.3353H61.0353V103.482H61.1353H61.2753C61.5686 103.482 61.8153 103.382 62.0153 103.182C62.186 103.012 62.2926 102.815 62.3353 102.594V92.7455C62.2926 92.5194 62.186 92.3316 62.0153 92.1823C61.8153 91.9823 61.5753 91.8823 61.2953 91.8823H61.1353H61.0353V91.6823H62.3353H62.4753H65.0353H65.2353ZM91.6103 91.6823C93.037 91.6823 94.2636 91.9223 95.2903 92.4023C96.317 92.869 97.1036 93.5557 97.6503 94.4623C98.197 95.3557 98.4703 96.429 98.4703 97.6823C98.4703 98.9357 98.197 100.009 97.6503 100.902C97.1036 101.796 96.317 102.482 95.2903 102.962C94.2636 103.442 93.037 103.682 91.6103 103.682H89.1103H87.1703H86.2903H86.2303H84.8503V103.482H84.9703H85.1103C85.417 103.482 85.677 103.376 85.8903 103.162C86.117 102.949 86.2303 102.696 86.2303 102.402V92.9423C86.217 92.6357 86.097 92.3823 85.8703 92.1823C85.657 91.9823 85.397 91.8823 85.0903 91.8823H84.9703H84.8503V91.6823H86.2303H86.2703H86.9303H89.1103H91.6103ZM89.5703 102.882H89.1103V92.4623H89.5103H90.9303H91.3703C92.6236 92.4623 93.6103 92.929 94.3303 93.8623C95.0503 94.7823 95.4103 96.0557 95.4103 97.6823C95.4103 99.309 95.0503 100.582 94.3303 101.502C93.6103 102.422 92.6236 102.882 91.3703 102.882H90.9303H89.5703ZM103.677 102.422V92.9423C103.69 92.6357 103.804 92.3823 104.017 92.1823C104.244 91.9823 104.517 91.8823 104.837 91.8823H104.957H105.057L105.077 91.6823H103.677H103.637H100.857H100.797H99.3969V91.8823H99.5169H99.6369C99.9569 91.8823 100.23 91.9823 100.457 92.1823C100.684 92.3823 100.797 92.6357 100.797 92.9423V102.422C100.797 102.716 100.684 102.969 100.457 103.182C100.23 103.382 99.9635 103.482 99.6569 103.482H99.5169H99.3969V103.682H100.797H100.857H103.637H103.677H105.077V103.482H104.937H104.837C104.517 103.482 104.244 103.382 104.017 103.182C103.804 102.969 103.69 102.716 103.677 102.422ZM118.052 98.6623L118.272 101.682C118.019 102.109 117.666 102.496 117.212 102.842C116.759 103.176 116.206 103.442 115.552 103.642C114.899 103.842 114.139 103.942 113.272 103.942C111.779 103.929 110.492 103.676 109.412 103.182C108.332 102.689 107.499 101.982 106.912 101.062C106.339 100.129 106.052 98.9957 106.052 97.6623C106.052 96.3557 106.339 95.2423 106.912 94.3223C107.486 93.389 108.312 92.6757 109.392 92.1823C110.472 91.6757 111.766 91.4223 113.272 91.4223C114.179 91.4223 115.019 91.509 115.792 91.6823C116.579 91.8557 117.232 92.0757 117.752 92.3423L117.772 95.5223H117.612C117.279 94.2957 116.752 93.4357 116.032 92.9423C115.312 92.449 114.459 92.2023 113.472 92.2023C112.499 92.2023 111.686 92.429 111.032 92.8823C110.392 93.3357 109.906 93.969 109.572 94.7823C109.252 95.5957 109.092 96.549 109.092 97.6423C109.092 98.749 109.252 99.709 109.572 100.522C109.906 101.336 110.386 101.969 111.012 102.422C111.639 102.876 112.392 103.116 113.272 103.142C114.219 103.142 114.999 102.996 115.612 102.702C116.239 102.409 116.732 101.936 117.092 101.282C117.466 100.629 117.732 99.7557 117.892 98.6623H118.052ZM123.365 92.4623H121.065C120.478 92.4757 120.025 92.649 119.705 92.9823C119.398 93.3157 119.245 93.769 119.245 94.3423V94.5223H119.025V92.4623V92.4023V91.8623V91.6623V91.3623C119.145 91.389 119.318 91.429 119.545 91.4823C119.785 91.5357 120.045 91.5823 120.325 91.6223C120.618 91.649 120.885 91.6623 121.125 91.6623H128.505C128.758 91.6623 129.031 91.649 129.325 91.6223C129.618 91.5823 129.885 91.5423 130.125 91.5023C130.365 91.449 130.531 91.4023 130.625 91.3623V91.6623V91.8623V92.4023V92.4623V94.5223H130.405V94.3423C130.418 93.769 130.258 93.3157 129.925 92.9823C129.605 92.649 129.158 92.4757 128.585 92.4623H126.265V102.422C126.265 102.716 126.371 102.969 126.585 103.182C126.798 103.382 127.058 103.482 127.365 103.482H127.465H127.585V103.682H126.265H126.205H123.405H123.365H122.065V103.482H122.165H122.285C122.578 103.482 122.825 103.382 123.025 103.182C123.238 102.969 123.351 102.716 123.365 102.422V92.4623ZM135.733 92.9423V102.422C135.746 102.716 135.86 102.969 136.073 103.182C136.3 103.382 136.573 103.482 136.893 103.482H136.993H137.133V103.682H135.733H135.693H132.913H132.853H131.453V103.482H131.573H131.713C132.02 103.482 132.286 103.382 132.513 103.182C132.74 102.969 132.853 102.716 132.853 102.422V92.9423C132.853 92.6357 132.74 92.3823 132.513 92.1823C132.286 91.9823 132.013 91.8823 131.693 91.8823H131.573H131.453V91.6823H132.853H132.913H135.693H135.733H137.133L137.113 91.8823H137.013H136.893C136.573 91.8823 136.3 91.9823 136.073 92.1823C135.86 92.3823 135.746 92.6357 135.733 92.9423ZM148.089 91.8623C147.222 91.569 146.255 91.4223 145.189 91.4223C144.135 91.4223 143.175 91.569 142.309 91.8623C141.442 92.1423 140.695 92.5557 140.069 93.1023C139.442 93.649 138.962 94.309 138.629 95.0823C138.295 95.8557 138.129 96.729 138.129 97.7023C138.129 98.6623 138.295 99.529 138.629 100.302C138.962 101.062 139.442 101.716 140.069 102.262C140.695 102.809 141.442 103.229 142.309 103.522C143.175 103.802 144.135 103.942 145.189 103.942C146.255 103.942 147.222 103.802 148.089 103.522C148.955 103.229 149.702 102.809 150.329 102.262C150.955 101.716 151.435 101.062 151.769 100.302C152.115 99.529 152.289 98.6623 152.289 97.7023C152.289 96.729 152.115 95.8557 151.769 95.0823C151.435 94.309 150.955 93.649 150.329 93.1023C149.702 92.5557 148.955 92.1423 148.089 91.8623ZM147.309 102.502C146.709 102.942 146.002 103.162 145.189 103.162C144.389 103.162 143.689 102.942 143.089 102.502C142.489 102.049 142.022 101.416 141.689 100.602C141.355 99.789 141.189 98.8223 141.189 97.7023C141.189 96.569 141.355 95.5957 141.689 94.7823C142.022 93.9557 142.489 93.3223 143.089 92.8823C143.689 92.429 144.389 92.2023 145.189 92.2023C146.002 92.2023 146.709 92.429 147.309 92.8823C147.922 93.3223 148.389 93.9557 148.709 94.7823C149.042 95.5957 149.209 96.569 149.209 97.7023C149.209 98.8223 149.042 99.789 148.709 100.602C148.389 101.416 147.922 102.049 147.309 102.502ZM154.4 91.4023L163.58 99.472V92.9023C163.567 92.609 163.453 92.369 163.24 92.1823C163.04 91.9823 162.787 91.8823 162.48 91.8823H162.3H162.14V91.6823H163.58H163.62H166.26H166.32H167.76V91.8823H167.58H167.42C167.127 91.8823 166.867 91.9823 166.64 92.1823C166.427 92.369 166.32 92.609 166.32 92.9023V101.602C166.32 102.069 166.333 102.482 166.36 102.842C166.4 103.189 166.433 103.462 166.46 103.662L166.52 103.942H166.34L157.16 95.8589V102.462C157.173 102.756 157.287 103.002 157.5 103.202C157.713 103.389 157.967 103.482 158.26 103.482H158.42H158.6V103.682H157.16H157.12H154.48H154.42H153V103.482H153.16H153.32C153.627 103.482 153.887 103.389 154.1 103.202C154.313 103.002 154.42 102.756 154.42 102.462V93.6823C154.42 93.0023 154.387 92.4557 154.32 92.0423L154.22 91.4023H154.4ZM173.686 91.4623C173.313 91.4357 172.993 91.4223 172.726 91.4223C172.059 91.4223 171.466 91.5423 170.946 91.7823C170.426 92.0223 170.006 92.369 169.686 92.8223C169.379 93.2757 169.193 93.8223 169.126 94.4623C169.046 95.1423 169.153 95.769 169.446 96.3423C169.753 96.9157 170.239 97.3757 170.906 97.7223L173.746 99.5223C174.279 99.8023 174.659 100.089 174.886 100.382C175.126 100.662 175.246 100.982 175.246 101.342C175.246 101.822 175.053 102.242 174.666 102.602C174.279 102.962 173.699 103.142 172.926 103.142C172.219 103.142 171.613 102.996 171.106 102.702C170.599 102.396 170.213 101.989 169.946 101.482C169.693 100.976 169.586 100.422 169.626 99.8223H169.466C169.306 100.076 169.173 100.396 169.066 100.782C168.959 101.156 168.899 101.536 168.886 101.922C168.873 102.296 168.919 102.616 169.026 102.882C169.213 103.082 169.479 103.262 169.826 103.422C170.186 103.582 170.613 103.709 171.106 103.802C171.599 103.896 172.133 103.942 172.706 103.942C173.639 103.942 174.446 103.802 175.126 103.522C175.819 103.229 176.359 102.809 176.746 102.262C177.146 101.716 177.366 101.069 177.406 100.322C177.446 99.6023 177.313 98.989 177.006 98.4823C176.699 97.9757 176.279 97.589 175.746 97.3223L172.606 95.3823C172.353 95.2357 172.119 95.089 171.906 94.9423C171.706 94.7957 171.546 94.629 171.426 94.4423C171.319 94.2423 171.279 94.0223 171.306 93.7823C171.333 93.3157 171.539 92.9423 171.926 92.6623C172.326 92.3823 172.846 92.2423 173.486 92.2423C174.286 92.2423 174.899 92.4223 175.326 92.7823C175.753 93.1423 175.966 93.629 175.966 94.2423H176.146L176.406 91.8023L176.395 91.7984L176.406 91.6023H175.266C175.127 91.5867 174.981 91.5734 174.826 91.5623C174.453 91.5223 174.073 91.489 173.686 91.4623Z" fill="#757575"/>
</svg>
