<svg width="179" height="180" viewBox="0 0 179 180" fill="none" xmlns="http://www.w3.org/2000/svg">
<g clip-path="url(#clip0_317_10236)">
<mask id="mask0_317_10236" style="mask-type:luminance" maskUnits="userSpaceOnUse" x="10" y="76" width="160" height="29">
<path d="M170 76H10V105H170V76Z" fill="white"/>
</mask>
<g mask="url(#mask0_317_10236)">
<path d="M19.0258 104.808C17.6496 104.808 16.4219 104.593 15.3426 104.163C14.2903 103.706 13.3863 103.127 12.6309 102.428C11.9023 101.729 11.3222 100.975 10.8904 100.168C10.4587 99.3614 10.1619 98.5814 10 97.8282L14.8569 96.0126C15.1537 97.1961 15.6529 98.1241 16.3544 98.7966C17.083 99.4422 18.0004 99.7649 19.1067 99.7649C19.9162 99.7649 20.6852 99.5766 21.4137 99.2C22.1423 98.8234 22.7224 98.2182 23.1542 97.3845C23.6129 96.5506 23.8423 95.4745 23.8423 94.1566V76H29.3468V95.7705C29.3468 97.1691 29.0903 98.4334 28.5777 99.5631C28.065 100.666 27.3364 101.607 26.3921 102.388C25.4748 103.168 24.3819 103.773 23.1137 104.203C21.8725 104.607 20.5098 104.808 19.0258 104.808Z" fill="#757575"/>
<path fill-rule="evenodd" clip-rule="evenodd" d="M91.2998 94.9244V104.285H85.7549V76.0417H90.6522L96.2781 76.0013C98.2749 75.9744 100.042 76.3779 101.58 77.2117C103.118 78.0187 104.319 79.135 105.183 80.5606C106.046 81.9593 106.478 83.5867 106.478 85.4427C106.478 87.2718 106.059 88.8992 105.223 90.3248C104.386 91.7503 103.24 92.8802 101.783 93.7139C100.325 94.521 98.6391 94.9244 96.7233 94.9244H91.2998ZM91.2998 89.8406H96.6019C97.8432 89.8406 98.855 89.4371 99.6375 88.6302C100.447 87.8232 100.852 86.7607 100.852 85.4427C100.852 84.5819 100.649 83.8287 100.245 83.1832C99.8398 82.5108 99.2867 81.9862 98.5851 81.6096C97.8836 81.2331 97.074 81.0582 96.1568 81.0851H91.2998V89.8406Z" fill="#757575"/>
<path d="M78.9049 104.769C76.6654 104.769 74.9654 104.218 73.8052 103.115C72.6718 102.012 72.1052 100.439 72.1052 98.3944V77.8169H77.4478V84.1112H82.5071V88.6302H77.4478V97.2242C77.4478 98.085 77.6367 98.744 78.0145 99.2013C78.3922 99.6317 78.9454 99.8468 79.6739 99.8468C79.9436 99.8468 80.2405 99.7931 80.5644 99.6855C80.7113 99.6244 80.8612 99.5522 81.0137 99.469C81.1973 99.3689 81.3846 99.2528 81.5762 99.1205L83.438 103.115C82.7905 103.599 82.0619 103.989 81.2524 104.285C80.4699 104.608 79.6873 104.769 78.9049 104.769Z" fill="#757575"/>
<path d="M57.4857 104.204C58.6191 104.581 59.8333 104.769 61.1284 104.769C62.7204 104.769 64.1235 104.514 65.3378 104.003C66.5789 103.492 67.5504 102.779 68.2519 101.864C68.9805 100.923 69.3447 99.8468 69.3447 98.6363C69.3447 97.8026 69.1558 96.9552 68.778 96.0945C68.4274 95.2068 67.8471 94.4132 67.0377 93.7139C66.2282 92.9877 65.1623 92.4631 63.8402 92.1403L61.2095 91.4948C60.5347 91.3334 60.0086 91.145 59.6308 90.9299C59.2531 90.6879 59.0642 90.3919 59.0642 90.0423C59.0642 89.5312 59.2531 89.1277 59.6308 88.8318C60.0356 88.5359 60.5887 88.388 61.2903 88.388C62.0188 88.388 62.7474 88.5494 63.4759 88.8721C64.2045 89.168 64.6631 89.585 64.8521 90.1229L69.2637 88.1056C68.967 87.2179 68.4274 86.4378 67.6448 85.7654C66.8623 85.0929 65.918 84.5684 64.8116 84.1918C63.7322 83.8152 62.5586 83.627 61.2903 83.627C58.8349 83.627 56.9327 84.1918 55.5834 85.3216C54.2343 86.4513 53.5597 88.0518 53.5597 90.1229C53.5597 91.5755 54.1129 92.8666 55.2192 93.9963C56.3524 95.0992 57.904 95.9061 59.8738 96.4172L61.7356 96.9014C62.3831 97.0628 62.8959 97.2645 63.2736 97.5066C63.6783 97.7218 63.8806 98.0715 63.8806 98.5556C63.8806 99.0129 63.6378 99.3626 63.1522 99.6048C62.6665 99.8468 61.9919 99.9679 61.1284 99.9679C60.2111 99.9679 59.4015 99.7392 58.6999 99.282C57.9984 98.8247 57.4452 98.2867 57.0406 97.668L52.4669 99.7662C52.9526 100.842 53.6272 101.757 54.4906 102.51C55.354 103.236 56.3524 103.801 57.4857 104.204Z" fill="#757575"/>
<path d="M45.2985 101.613L45.5317 104.285H50.5504V84.1113H45.2077V94.6826C45.2077 96.3502 44.8435 97.628 44.1151 98.5155C43.3864 99.3764 42.3206 99.7932 40.9176 99.7664C40.189 99.7664 39.5279 99.605 38.9343 99.2823C38.3676 98.9325 37.9224 98.3811 37.5986 97.628C37.3017 96.8479 37.1533 95.7853 37.1533 94.4404V84.1113H31.8108V95.6509C31.8108 98.7442 32.4584 101.044 33.7536 102.55C35.0758 104.03 36.951 104.769 39.3795 104.769C40.9176 104.769 42.2531 104.379 43.3864 103.599C44.1366 103.078 44.7738 102.415 45.2985 101.613Z" fill="#757575"/>
<path fill-rule="evenodd" clip-rule="evenodd" d="M119.704 104.285L119.678 102.076C119.63 102.154 119.582 102.23 119.532 102.305L119.505 102.347C119.477 102.388 119.449 102.429 119.42 102.469C118.368 104.003 116.641 104.769 114.24 104.769C111.811 104.769 109.923 104.231 108.573 103.155C107.251 102.079 106.59 100.56 106.59 98.596C106.59 96.4442 107.305 94.8302 108.735 93.7543C110.192 92.6514 112.23 92.1 114.847 92.1H119.436C119.372 91.7068 119.285 91.3437 119.178 91.0106C118.935 90.1499 118.53 89.5043 117.963 89.0739C117.424 88.6166 116.695 88.388 115.778 88.388C114.968 88.388 114.24 88.5628 113.592 88.9125C112.945 89.2621 112.392 89.827 111.933 90.6071L107.157 88.9932C107.535 88.1324 108.074 87.2986 108.776 86.4916C109.504 85.6578 110.449 84.9719 111.609 84.4339C112.796 83.8959 114.226 83.627 115.899 83.627C117.923 83.627 119.609 83.99 120.958 84.7164C122.308 85.4426 123.32 86.5185 123.994 87.9442C124.669 89.3429 125.006 91.0644 125.006 93.1088V104.285H119.704ZM119.542 96.0542H116.709C114.955 96.0542 113.741 96.2693 113.066 96.6997C112.392 97.1031 112.054 97.6815 112.054 98.4346C112.054 99.0264 112.324 99.4972 112.864 99.8468C113.403 100.17 114.159 100.331 115.13 100.331C115.994 100.331 116.749 100.129 117.397 99.7257C118.071 99.2953 118.598 98.7574 118.975 98.1119C119.353 97.4393 119.542 96.7535 119.542 96.0542Z" fill="#757575"/>
<path d="M127.961 84.1113V104.285H133.304V84.1113H127.961Z" fill="#757575"/>
<path fill-rule="evenodd" clip-rule="evenodd" d="M151.02 104.286L150.81 101.502C150.297 102.295 149.679 102.954 148.956 103.479C147.796 104.339 146.366 104.77 144.666 104.77C142.804 104.77 141.185 104.339 139.809 103.479C138.46 102.618 137.407 101.394 136.652 99.8069C135.896 98.2199 135.518 96.3504 135.518 94.1984C135.518 92.0198 135.896 90.1503 136.652 88.5901C137.407 87.0031 138.46 85.7793 139.809 84.9185C141.185 84.0577 142.804 83.6274 144.666 83.6274C146.366 83.6274 147.796 84.0577 148.956 84.9185C149.645 85.4181 150.239 86.04 150.737 86.7842V76.042H156.08V104.286H151.02ZM150.17 97.1438C150.47 96.5052 150.659 95.8003 150.737 95.0284V93.3686C150.659 92.5969 150.47 91.8916 150.17 91.2531C149.765 90.3923 149.199 89.7333 148.47 89.276C147.769 88.7919 146.946 88.5498 146.001 88.5498C145.03 88.5498 144.18 88.7919 143.451 89.276C142.723 89.7333 142.143 90.3923 141.711 91.2531C141.279 92.1139 141.063 93.0957 141.063 94.1984C141.063 95.3013 141.279 96.2831 141.711 97.1438C142.143 98.0047 142.723 98.6771 143.451 99.1614C144.207 99.6455 145.07 99.8875 146.042 99.8875C146.959 99.8875 147.769 99.6455 148.47 99.1614C149.199 98.6771 149.765 98.0047 150.17 97.1438Z" fill="#757575"/>
<path d="M169.76 99.6413C169.76 102.601 167.353 105 164.384 105C161.415 105 159.008 102.601 159.008 99.6413C159.008 96.6819 161.415 94.2827 164.384 94.2827C167.353 94.2827 169.76 96.6819 169.76 99.6413Z" fill="#757575"/>
</g>
</g>
<defs>
<clipPath id="clip0_317_10236">
<rect width="160" height="29" fill="white" transform="translate(10 76)"/>
</clipPath>
</defs>
</svg>
