<svg width="179" height="180" viewBox="0 0 179 180" fill="none" xmlns="http://www.w3.org/2000/svg">
<path d="M66.5471 80.5986C67.0745 80.5986 67.5014 80.7482 67.8278 81.0224C68.1544 81.2966 68.3803 81.6955 68.5059 82.1941H68.5812C68.7318 82.1941 68.983 82.0944 69.3094 81.9198C69.636 81.7453 69.8619 81.6207 69.9874 81.5708C71.0171 81.1969 72.0468 80.9476 73.0765 80.823C74.1311 80.6734 75.1859 80.5986 76.2909 80.5986C77.2451 80.5986 78.2495 80.6734 79.2792 80.7981C80.3088 80.9227 81.3134 81.172 82.2676 81.4961C83.222 81.8451 84.126 82.2938 84.9295 82.8921C85.7332 83.4903 86.4111 84.2382 86.9636 85.1605C87.1646 85.5345 87.3655 85.9334 87.5412 86.4319C87.717 86.9055 87.8175 87.3542 87.8175 87.7781V102.137C87.8175 102.636 87.5914 103.01 87.1646 103.309C86.7377 103.583 86.3107 103.732 85.8839 103.732C85.708 103.732 85.5071 103.682 85.2812 103.608C85.0552 103.533 84.8542 103.408 84.6534 103.284C84.4525 103.134 84.3017 102.985 84.1511 102.81C84.0255 102.636 83.9502 102.461 83.9502 102.237V88.152C83.9502 88.1021 83.9 87.9276 83.7745 87.6534C83.6488 87.3792 83.5735 87.2047 83.5233 87.13C83.1718 86.5566 82.7197 86.0829 82.1421 85.7339C81.5645 85.36 80.9367 85.1107 80.2586 84.9113C79.5804 84.7367 78.8773 84.6121 78.1742 84.5374C77.471 84.4625 76.8181 84.4376 76.2154 84.4376C75.5877 84.4376 74.9348 84.4625 74.2568 84.5124C73.5788 84.5623 72.9258 84.6869 72.2729 84.8615C71.6449 85.0359 71.0171 85.2852 70.4395 85.6092C69.8619 85.9334 69.3847 86.3571 68.983 86.9055C68.9077 87.0302 68.782 87.2297 68.6565 87.5039C68.5059 87.7781 68.4305 87.9276 68.4305 88.0024V102.037C68.4305 102.511 68.2046 102.91 67.7525 103.234C67.3004 103.558 66.8485 103.732 66.4467 103.732C66.0701 103.732 65.6933 103.608 65.2412 103.334C64.8144 103.084 64.5883 102.735 64.5883 102.311V82.0196C64.5883 81.5708 64.8144 81.2468 65.2412 80.9975C65.7937 80.7233 66.1956 80.5986 66.5471 80.5986Z" fill="#757575"/>
<path d="M91.0089 92.1392C91.0089 90.419 91.2852 88.8735 91.8628 87.4525C92.4405 86.0317 93.244 84.8102 94.2737 83.7881C95.3034 82.766 96.5339 81.9683 97.9653 81.4198C99.3966 80.8714 100.954 80.5723 102.636 80.5723C103.967 80.5723 105.273 80.6969 106.503 80.9213C107.759 81.1456 108.965 81.5694 110.145 82.1677H110.27C110.421 81.719 110.672 81.345 110.999 81.0459C111.325 80.7468 111.727 80.5723 112.229 80.5723C112.656 80.5723 113.083 80.7218 113.51 80.996C113.937 81.2703 114.163 81.6691 114.163 82.1677V102.086C114.163 102.584 113.937 102.958 113.51 103.257C113.083 103.532 112.656 103.681 112.229 103.681C111.727 103.681 111.325 103.532 110.999 103.207C110.672 102.908 110.421 102.509 110.27 102.086H110.145C108.889 102.684 107.634 103.108 106.403 103.332C105.173 103.556 103.867 103.681 102.511 103.681C100.803 103.681 99.246 103.407 97.8396 102.833C96.4333 102.26 95.2029 101.462 94.1984 100.44C93.1687 99.4182 92.3902 98.1967 91.8377 96.7759C91.2852 95.3799 91.0089 93.8342 91.0089 92.1392ZM94.8764 92.1142C94.8764 93.261 95.0773 94.308 95.454 95.2552C95.8306 96.2025 96.358 97.0251 97.036 97.6982C97.714 98.3962 98.5176 98.9196 99.472 99.2937C100.401 99.6676 101.456 99.8669 102.611 99.8669C103.189 99.8669 103.842 99.842 104.545 99.7674C105.273 99.6926 105.951 99.5677 106.629 99.3934C107.307 99.2188 107.935 98.9446 108.512 98.5956C109.09 98.2467 109.542 97.773 109.894 97.1746C109.969 97.0501 110.044 96.8754 110.145 96.6512C110.245 96.4269 110.27 96.2523 110.27 96.0778V88.2253C110.27 88.0758 110.22 87.8762 110.145 87.652C110.044 87.4277 109.969 87.2532 109.894 87.1285C109.542 86.5551 109.115 86.1064 108.538 85.7575C107.985 85.4084 107.357 85.1342 106.705 84.9348C106.026 84.7354 105.348 84.6106 104.645 84.5359C103.942 84.4611 103.289 84.4362 102.687 84.4362C101.531 84.4362 100.476 84.6106 99.5222 84.9846C98.5678 85.3585 97.7392 85.857 97.0611 86.5301C96.3831 87.2033 95.8559 88.0011 95.4791 88.9484C95.0773 89.8956 94.8764 90.9426 94.8764 92.1142Z" fill="#757575"/>
<path d="M119.132 76.9321C119.534 76.9321 119.935 77.0318 120.387 77.2313C120.839 77.4307 121.065 77.8046 121.065 78.3281V102.21C121.065 102.658 120.839 103.007 120.387 103.282C119.935 103.556 119.534 103.681 119.132 103.681C118.956 103.681 118.755 103.631 118.529 103.556C118.303 103.481 118.102 103.381 117.926 103.257C117.751 103.132 117.6 102.983 117.474 102.783C117.349 102.609 117.298 102.409 117.298 102.21V78.3281C117.298 77.8794 117.524 77.5553 117.951 77.3061C118.378 77.0568 118.78 76.9321 119.132 76.9321Z" fill="#757575"/>
<path d="M124.183 92.1392C124.183 90.419 124.459 88.8735 125.036 87.4525C125.614 86.0317 126.418 84.8102 127.447 83.7881C128.477 82.766 129.707 81.9683 131.139 81.4198C132.57 80.8714 134.127 80.5723 135.81 80.5723C137.141 80.5723 138.447 80.6969 139.677 80.9213C140.933 81.1456 142.138 81.5694 143.319 82.1677H143.444C143.595 81.719 143.846 81.345 144.172 81.0459C144.499 80.7468 144.901 80.5723 145.403 80.5723C145.83 80.5723 146.257 80.7218 146.684 80.996C147.111 81.2703 147.336 81.6691 147.336 82.1677V102.086C147.336 102.584 147.111 102.958 146.684 103.257C146.257 103.532 145.83 103.681 145.403 103.681C144.901 103.681 144.499 103.532 144.172 103.207C143.846 102.908 143.595 102.509 143.444 102.086H143.319C142.063 102.684 140.807 103.108 139.577 103.332C138.346 103.556 137.04 103.681 135.684 103.681C133.977 103.681 132.419 103.407 131.013 102.833C129.607 102.26 128.376 101.462 127.372 100.44C126.342 99.4182 125.564 98.1967 125.011 96.7759C124.484 95.3799 124.183 93.8342 124.183 92.1392ZM128.075 92.1142C128.075 93.261 128.276 94.308 128.653 95.2552C129.029 96.2025 129.557 97.0251 130.235 97.6982C130.913 98.3962 131.716 98.9196 132.671 99.2937C133.6 99.6676 134.655 99.8669 135.81 99.8669C136.387 99.8669 137.04 99.842 137.743 99.7674C138.472 99.6926 139.15 99.5677 139.828 99.3934C140.506 99.2188 141.134 98.9446 141.711 98.5956C142.289 98.2467 142.741 97.773 143.093 97.1746C143.168 97.0501 143.243 96.8754 143.344 96.6512C143.444 96.4269 143.469 96.2523 143.469 96.0778V88.2253C143.469 88.0758 143.419 87.8762 143.344 87.652C143.243 87.4277 143.168 87.2532 143.093 87.1285C142.741 86.5551 142.314 86.1064 141.736 85.7575C141.184 85.4084 140.556 85.1342 139.903 84.9348C139.225 84.7354 138.547 84.6106 137.844 84.5359C137.141 84.4611 136.488 84.4362 135.885 84.4362C134.73 84.4362 133.675 84.6106 132.721 84.9846C131.767 85.3585 130.938 85.857 130.26 86.5301C129.582 87.2033 129.054 88.0011 128.678 88.9484C128.251 89.8956 128.075 90.9426 128.075 92.1142Z" fill="#757575"/>
<path d="M32.8503 89.672C32.9257 89.5473 33.0512 89.4476 33.2521 89.3978C33.6037 89.323 33.7544 89.0238 33.8297 88.7247C33.9302 88.2512 34.2064 87.8771 34.5078 87.5531C34.5078 87.5281 34.5329 87.5281 34.558 87.5281C33.0512 84.1129 33.1015 84.8608 32.549 81.1464C32.323 79.6258 32.097 78.0303 31.3687 76.7091C29.5103 73.269 27.7776 73.4185 27.3255 73.618C26.9991 73.7676 26.7731 74.6401 26.8484 75.1137C28.0287 84.9854 30.992 86.9299 32.8503 89.672Z" fill="#757575"/>
<path d="M37.6687 85.7083C37.744 85.9576 37.7944 86.207 37.8195 86.4812C38.3718 86.4064 38.8992 86.4314 39.4519 86.4314C39.6276 86.4314 39.6778 86.5062 39.6527 86.6557C39.6276 86.9299 39.6025 87.2041 39.5523 87.4783C39.5272 87.6528 39.6276 87.7275 39.7531 87.7775C40.0546 87.8522 40.3307 87.927 40.6322 88.0017C40.3809 87.1043 40.1048 85.858 39.8284 84.2126C39.5021 82.4926 39.5021 78.9278 39.0751 75.0888C38.6732 68.0091 31.2148 64.1202 37.6687 85.7083Z" fill="#757575"/>
<path d="M43.5456 87.0542C43.4953 87.2039 43.3698 87.6526 43.2192 88.1511C43.2694 88.176 43.3447 88.226 43.3949 88.251C43.7466 88.4751 44.1483 88.4751 44.5501 88.4751C44.8765 88.4502 45.2031 88.4003 45.5294 88.4003C45.5796 88.4003 45.6802 88.4751 45.7053 88.55C45.8058 88.8492 45.8811 89.1731 45.9815 89.4973C45.9815 89.5472 46.0317 89.597 46.0066 89.622C45.856 89.7963 45.9815 89.946 46.0568 90.0705C46.2326 90.4196 46.3332 90.8434 46.6595 91.1176C46.76 91.2175 46.7851 91.4167 46.7851 91.5664C46.7851 91.8654 46.8604 92.1147 47.0614 92.3641C47.212 92.5136 47.2874 92.738 47.4129 92.9125C47.4631 92.9872 47.4882 93.062 47.5384 93.1119C46.6846 90.8683 46.6344 88.5 46.8353 86.1818C49.2712 70.4269 42.8675 75.5123 43.7215 80.0493C44.2991 83.0907 44.6003 84.013 43.5456 87.0542Z" fill="#757575"/>
<path d="M59.4422 91.9162C59.392 90.296 58.3121 89.5731 56.9058 90.3457C56.0018 90.8444 55.2234 91.667 54.5201 92.4397C53.8923 93.1627 53.4904 94.3593 52.9881 94.808C52.059 95.6306 51.0043 95.905 50.0501 95.7054C49.8492 96.0793 49.5729 96.4532 49.2214 96.7524C49.1712 96.7772 49.1461 96.8272 49.0959 96.8521C48.468 97.0764 48.1415 97.6498 47.7147 98.0737C47.4635 98.2981 47.363 98.5971 47.3379 98.8963C47.3128 99.2702 47.3882 99.6192 47.4384 99.9931C47.5137 100.442 47.6141 100.866 47.6643 101.314C47.7147 101.614 47.5388 101.838 47.3128 101.988C47.0114 102.187 46.7101 102.336 46.434 102.536C46.1074 102.76 46.0572 102.935 46.2078 103.309C46.258 103.483 46.3083 103.658 46.3334 103.832C46.3837 104.081 46.258 104.281 46.0321 104.356C45.6302 104.505 45.5298 104.779 45.5549 105.153C45.58 105.378 45.4545 105.577 45.2535 105.702C45.1279 105.801 45.0275 105.926 44.9269 106.051C44.8767 106.126 44.8265 106.2 44.7512 106.25C44.5001 106.5 44.274 106.749 43.9978 106.948C43.7719 107.098 43.5207 107.223 43.2445 107.247C42.8426 107.297 42.4409 107.247 42.0642 107.422C41.8382 107.522 41.6123 107.422 41.5117 107.173C41.4364 106.973 41.3861 106.774 41.3359 106.574C41.2355 106.275 41.1602 105.976 41.0347 105.702C40.8085 105.153 40.5826 104.63 40.3315 104.106C40.3064 104.056 40.2813 104.032 40.3064 103.982C40.3315 103.508 40.0552 103.159 39.8543 102.76C39.5278 102.162 39.5529 101.564 39.9297 100.965C40.1054 100.666 40.2058 100.367 40.1054 100.018C39.9799 99.6442 39.9046 99.2702 39.8041 98.8963C39.779 98.8215 39.7288 98.7466 39.6786 98.6968C39.4274 98.3977 39.2014 98.0985 38.9504 97.7993C38.8498 97.6748 38.8498 97.5502 38.9253 97.4006C39.0257 97.2013 39.101 96.9768 39.1763 96.7524C39.2265 96.5531 39.1261 96.4035 38.9 96.3785C38.6991 96.3287 38.4983 96.3287 38.2974 96.3287C38.0964 96.3287 37.9458 96.2539 37.8956 96.0543C37.8203 95.8301 37.6445 95.7303 37.4434 95.7553C37.0919 95.7801 36.7654 95.88 36.4139 95.9298C36.1376 95.9796 35.8614 95.9796 35.5852 96.0295C35.3842 96.0543 35.1582 96.0793 34.9825 96.1792C34.6309 96.3785 34.3295 96.3535 34.003 96.1043C33.6766 95.8301 33.325 95.5808 32.9734 95.3066C32.9483 95.2817 32.9232 95.2319 32.9232 95.2069C32.9734 94.9825 32.7976 94.8579 32.6721 94.7083C32.5465 94.5837 32.4712 94.4091 32.3707 94.2596C32.3456 94.2098 32.2954 94.1598 32.2452 94.1598C32.0694 94.1349 31.994 94.0103 31.9689 93.8608C31.8685 93.5117 31.768 93.1627 31.9438 92.7888C31.9438 92.7638 31.9689 92.7389 31.9689 92.7389C31.6425 92.6891 31.316 92.5644 30.9895 92.2902C30.0101 91.4676 29.6837 91.0686 27.5742 87.155C25.0378 79.8259 18.4081 84.0388 22.8279 86.9306C24.0835 88.1271 25.4145 89.2241 26.645 90.4455C30.2613 94.0601 30.3868 94.9077 33.0236 99.2453C34.5806 101.813 36.1376 104.43 37.9458 106.799C39.0006 108.195 40.4822 109.391 41.9889 110.289C44.9018 112.034 48.2419 110.937 49.7488 107.896C50.3262 106.749 50.703 105.502 51.0545 104.256C51.9837 100.866 52.5362 99.8186 55.4242 97.7993C56.3784 97.1264 57.3077 96.3535 58.1364 95.5311C59.1408 94.5837 59.4924 93.2874 59.4422 91.9162ZM50.276 101.713C49.9998 102.536 49.7235 103.359 49.4725 104.156C49.372 104.48 49.2465 104.58 48.9702 104.58C48.7191 104.58 48.5685 104.455 48.468 104.156C48.4429 104.056 48.4178 103.957 48.3927 103.882C48.2419 103.608 48.1666 103.334 48.4932 103.084C48.5685 103.01 48.5685 102.81 48.5434 102.685C48.4178 102.162 48.5183 101.888 49.0204 101.663C49.2967 101.539 49.4976 101.364 49.6231 101.065C49.6733 100.915 49.8241 100.816 49.9245 100.691C50.025 100.816 50.1756 100.915 50.2509 101.065C50.3262 101.215 50.3513 101.364 50.4017 101.489C50.3011 101.614 50.3011 101.663 50.276 101.713Z" fill="#757575"/>
<path d="M157.681 84.5859C157.681 85.0346 157.605 85.4584 157.429 85.8323C157.254 86.2312 157.027 86.5552 156.726 86.8544C156.425 87.1536 156.098 87.378 155.697 87.5275C155.295 87.702 154.893 87.7767 154.441 87.7767C153.989 87.7767 153.562 87.702 153.185 87.5275C152.784 87.353 152.457 87.1286 152.156 86.8544C151.854 86.5552 151.628 86.2312 151.478 85.8323C151.302 85.4334 151.227 85.0346 151.227 84.5859C151.227 84.1371 151.302 83.7134 151.478 83.3146C151.653 82.9157 151.879 82.5916 152.156 82.2925C152.457 81.9933 152.784 81.769 153.185 81.6194C153.587 81.4449 153.989 81.3701 154.441 81.3701C154.893 81.3701 155.32 81.4449 155.697 81.6194C156.098 81.7939 156.425 82.0182 156.726 82.2925C157.027 82.5916 157.254 82.9157 157.429 83.3146C157.605 83.7383 157.681 84.1371 157.681 84.5859ZM157.178 84.5859C157.178 84.2119 157.103 83.8629 156.952 83.514C156.802 83.1898 156.601 82.8908 156.375 82.6415C156.123 82.3922 155.847 82.2177 155.521 82.0681C155.194 81.9185 154.843 81.8438 154.466 81.8438C154.089 81.8438 153.738 81.9185 153.411 82.0681C153.085 82.2177 152.784 82.4171 152.532 82.6415C152.281 82.8908 152.08 83.165 151.93 83.514C151.779 83.8381 151.704 84.2119 151.704 84.5859C151.704 84.9598 151.779 85.3088 151.93 85.633C152.08 85.957 152.281 86.2562 152.532 86.4804C152.784 86.7298 153.06 86.9042 153.411 87.0538C153.738 87.2033 154.089 87.2533 154.466 87.2533C154.843 87.2533 155.194 87.1784 155.521 87.0538C155.847 86.9042 156.123 86.7298 156.375 86.4804C156.626 86.2312 156.802 85.957 156.952 85.633C157.103 85.3088 157.178 84.9598 157.178 84.5859ZM155.521 85.7326L154.818 85.0346H154.064V84.5859H154.968C155.295 84.5859 155.471 84.4115 155.471 84.0873C155.471 83.9377 155.42 83.8131 155.345 83.7383C155.244 83.6386 155.119 83.6137 154.968 83.6137H153.462V85.7326H152.959V83.14H154.968C155.295 83.14 155.546 83.2148 155.697 83.3894C155.872 83.5638 155.948 83.7882 155.948 84.0873C155.948 84.3117 155.897 84.4862 155.797 84.6358C155.697 84.7853 155.571 84.885 155.37 84.9598L156.199 85.7326H155.521Z" fill="#757575"/>
</svg>
