<svg width="179" height="180" viewBox="0 0 179 180" fill="none" xmlns="http://www.w3.org/2000/svg">
<path d="M31.0238 87.1688C26.6944 81.2743 17.2906 73.9873 5.83854 68C5.79397 68.2055 5.7214 68.4542 5.6371 68.7432C5.017 70.8684 3.76245 75.168 8.35241 80.4388C12.6353 84.5232 14.9164 85.962 21.2476 89.3502C21.6891 89.6784 22.1413 89.9898 22.598 90.3043C24.9829 91.9466 27.4891 93.6724 29.2082 98.308C30.1393 101.928 29.3944 104.992 26.6944 109.494C29.9065 107.962 33.1403 104.759 34.4222 101.603C36.7033 95.9873 34.2825 91.2996 31.0238 87.1688Z" fill="#757575"/>
<path d="M21.3407 91.5781C19.3957 90.3153 17.646 89.3544 15.9952 88.4479C12.549 86.5554 9.53359 84.8994 6.07131 81.2278C6.72305 86.4726 8.1662 91.5316 14.5905 95.5696C15.2782 96.0577 16.4328 96.5952 17.7671 97.2164C21.7623 99.0764 27.3691 101.687 26.8806 105.966C28.5099 101.418 28.5565 96.73 21.3407 91.5781Z" fill="#757575"/>
<path d="M33.3049 86.7975C36.1447 91.1139 36.8895 95.1055 36.6567 98.9114C36.2378 101.696 34.7481 104.527 32.5601 106.616C32.4827 106.684 32.4069 106.751 32.3323 106.816C30.5193 108.413 29.3823 109.414 23.4356 112C28.6496 111.257 31.9549 109.215 32.3738 108.844C35.9036 106.205 37.0079 104.149 37.6289 102.993C37.6631 102.929 37.6958 102.868 37.7275 102.81C38.8446 100.462 39.4555 98.7323 40.1388 96.7978C40.509 95.7495 40.9004 94.6412 41.4052 93.3418C44.7104 86.6118 49.8778 88.0042 51.0417 89.0253C49.8778 86.9367 47.5502 82.9916 42.4759 82.9916C37.5322 83.3552 34.6343 85.7232 33.6287 86.545C33.479 86.6673 33.3713 86.7554 33.3049 86.7975Z" fill="#757575"/>
<path d="M73.4906 102.7L68.3978 93.4211H65.6286V102.7H62V79.5032H69.6392C71.3368 79.5032 72.7692 79.8147 73.9363 80.4377C75.1246 81.0608 76.0052 81.8952 76.5781 82.941C77.1723 83.9867 77.4694 85.1549 77.4694 86.4454C77.4694 87.9585 77.045 89.338 76.1962 90.5841C75.3686 91.8079 74.0848 92.6423 72.3448 93.0873L77.8195 102.7H73.4906ZM65.6286 90.3838H69.6392C70.9973 90.3838 72.0158 90.0278 72.6949 89.3158C73.3951 88.6038 73.7453 87.647 73.7453 86.4454C73.7453 85.2439 73.4058 84.3094 72.7267 83.6418C72.0477 82.9521 71.0185 82.6072 69.6392 82.6072H65.6286V90.3838Z" fill="#757575"/>
<path d="M80.2652 93.4211C80.2652 91.5742 80.6259 89.9388 81.3474 88.5148C82.0901 87.0907 83.0875 85.9893 84.3394 85.2105C85.6126 84.4095 87.0132 84.009 88.541 84.009C89.9203 84.009 91.1192 84.2982 92.1378 84.8768C93.1776 85.433 94.0052 86.1339 94.6205 86.9795V84.3094H98.281V102.7H94.6205V99.9628C94.0052 100.831 93.167 101.554 92.106 102.132C91.045 102.711 89.8354 103 88.4773 103C86.9707 103 85.5914 102.599 84.3394 101.798C83.0875 100.975 82.0901 99.8404 81.3474 98.3941C80.6259 96.9255 80.2652 95.2679 80.2652 93.4211ZM94.6205 93.4878C94.6205 92.2195 94.3659 91.1181 93.8566 90.1836C93.3686 89.249 92.7213 88.537 91.915 88.0475C91.1086 87.558 90.2386 87.3132 89.3049 87.3132C88.3712 87.3132 87.5012 87.558 86.6949 88.0475C85.8885 88.5148 85.2307 89.2157 84.7214 90.1502C84.2333 91.0625 83.9893 92.1528 83.9893 93.4211C83.9893 94.6893 84.2333 95.8019 84.7214 96.7587C85.2307 97.7154 85.8885 98.4497 86.6949 98.9615C87.5224 99.451 88.3925 99.6958 89.3049 99.6958C90.2386 99.6958 91.1086 99.451 91.915 98.9615C92.7213 98.472 93.3686 97.7599 93.8566 96.8254C94.3659 95.8686 94.6205 94.7561 94.6205 93.4878Z" fill="#757575"/>
<path d="M104.257 81.8729C103.599 81.8729 103.047 81.6393 102.601 81.172C102.156 80.7048 101.933 80.1262 101.933 79.4365C101.933 78.7467 102.156 78.1682 102.601 77.7009C103.047 77.2336 103.599 77 104.257 77C104.893 77 105.434 77.2336 105.88 77.7009C106.326 78.1682 106.548 78.7467 106.548 79.4365C106.548 80.1262 106.326 80.7048 105.88 81.172C105.434 81.6393 104.893 81.8729 104.257 81.8729ZM106.039 84.3094V102.7H102.41V84.3094H106.039Z" fill="#757575"/>
<path d="M113.795 78.0013V102.7H110.167V78.0013H113.795Z" fill="#757575"/>
<path d="M121.551 87.0462C122.167 86.1562 123.005 85.433 124.066 84.8768C125.148 84.2982 126.347 84.009 127.663 84.009C129.212 84.009 130.612 84.3984 131.864 85.1771C133.116 85.9559 134.103 87.0685 134.824 88.5148C135.546 89.9388 135.907 91.5742 135.907 93.4211C135.907 95.2679 135.546 96.9255 134.824 98.3941C134.103 99.8404 133.105 100.975 131.832 101.798C130.58 102.599 129.19 103 127.663 103C126.304 103 125.095 102.722 124.034 102.166C122.994 101.609 122.167 100.897 121.551 100.03V102.7H117.923V78.0013H121.551V87.0462ZM132.214 93.4211C132.214 92.1528 131.96 91.0625 131.45 90.1502C130.962 89.2157 130.304 88.5148 129.477 88.0475C128.671 87.558 127.8 87.3132 126.867 87.3132C125.954 87.3132 125.084 87.558 124.257 88.0475C123.45 88.537 122.793 89.249 122.283 90.1836C121.795 91.1181 121.551 92.2195 121.551 93.4878C121.551 94.7561 121.795 95.8686 122.283 96.8254C122.793 97.7599 123.45 98.472 124.257 98.9615C125.084 99.451 125.954 99.6958 126.867 99.6958C127.8 99.6958 128.671 99.451 129.477 98.9615C130.304 98.4497 130.962 97.7154 131.45 96.7587C131.96 95.8019 132.214 94.6893 132.214 93.4211Z" fill="#757575"/>
<path d="M140.704 81.8729C140.047 81.8729 139.495 81.6393 139.049 81.172C138.604 80.7048 138.381 80.1262 138.381 79.4365C138.381 78.7467 138.604 78.1682 139.049 77.7009C139.495 77.2336 140.047 77 140.704 77C141.341 77 141.882 77.2336 142.328 77.7009C142.773 78.1682 142.996 78.7467 142.996 79.4365C142.996 80.1262 142.773 80.7048 142.328 81.172C141.882 81.6393 141.341 81.8729 140.704 81.8729ZM142.487 84.3094V102.7H138.858V84.3094H142.487Z" fill="#757575"/>
<path d="M150.243 86.9795C150.773 86.0449 151.474 85.3218 152.344 84.81C153.235 84.276 154.285 84.009 155.495 84.009V87.9474H154.572C153.15 87.9474 152.068 88.3256 151.325 89.0822C150.604 89.8387 150.243 91.1515 150.243 93.0205V102.7H146.614V84.3094H150.243V86.9795Z" fill="#757575"/>
<path d="M156.984 93.4211C156.984 91.5742 157.345 89.9388 158.066 88.5148C158.809 87.0907 159.806 85.9893 161.058 85.2105C162.332 84.4095 163.743 84.009 165.292 84.009C166.438 84.009 167.562 84.276 168.666 84.81C169.79 85.3218 170.682 86.0116 171.34 86.8793V78.0013H175V102.7H171.34V99.9294C170.745 100.819 169.918 101.554 168.857 102.132C167.817 102.711 166.618 103 165.26 103C163.732 103 162.332 102.599 161.058 101.798C159.806 100.975 158.809 99.8404 158.066 98.3941C157.345 96.9255 156.984 95.2679 156.984 93.4211ZM171.34 93.4878C171.34 92.2195 171.085 91.1181 170.576 90.1836C170.088 89.249 169.44 88.537 168.634 88.0475C167.828 87.558 166.958 87.3132 166.024 87.3132C165.09 87.3132 164.22 87.558 163.414 88.0475C162.608 88.5148 161.95 89.2157 161.44 90.1502C160.952 91.0625 160.708 92.1528 160.708 93.4211C160.708 94.6893 160.952 95.8019 161.44 96.7587C161.95 97.7154 162.608 98.4497 163.414 98.9615C164.241 99.451 165.111 99.6958 166.024 99.6958C166.958 99.6958 167.828 99.451 168.634 98.9615C169.44 98.472 170.088 97.7599 170.576 96.8254C171.085 95.8686 171.34 94.7561 171.34 93.4878Z" fill="#757575"/>
</svg>
