<svg width="179" height="180" viewBox="0 0 179 180" fill="none" xmlns="http://www.w3.org/2000/svg">
<g clip-path="url(#clip0_317_10234)">
<path d="M5 80.1568H11.775V84.3016H11.8873C12.6416 82.7739 13.7101 81.5934 15.1064 80.7557C16.4983 79.9181 18.0966 79.5015 19.906 79.5015C20.319 79.5015 20.7231 79.5362 21.1182 79.61C21.5133 79.6838 21.9174 79.7749 22.3305 79.8834V86.2112C21.7647 86.068 21.2125 85.9465 20.6648 85.8553C20.117 85.7642 19.5827 85.7208 19.0574 85.7208C17.477 85.7208 16.2064 86.0029 15.2456 86.5671C14.2848 87.1313 13.553 87.7779 13.0456 88.5027C12.5383 89.2319 12.1971 89.9567 12.0309 90.6858C11.8604 91.415 11.775 91.9574 11.775 92.3219V106.345H5V80.1568Z" fill="#757575"/>
<path d="M40.5004 102.747H40.3343C39.3556 104.24 38.1119 105.321 36.6079 105.993C35.1037 106.666 33.4471 107.004 31.6422 107.004C30.3985 107.004 29.1864 106.839 28.001 106.514C26.8157 106.184 25.7605 105.694 24.8402 105.038C23.9198 104.383 23.1745 103.567 22.6087 102.582C22.0432 101.601 21.7603 100.455 21.7603 99.1446C21.7603 97.7254 22.0251 96.5189 22.5504 95.5163C23.0757 94.518 23.7806 93.6805 24.6651 93.0078C25.5496 92.3351 26.5733 91.8013 27.7405 91.3977C28.9079 90.9984 30.1202 90.6988 31.3818 90.4992C32.6433 90.2997 33.9141 90.1737 35.1935 90.1173C36.4731 90.0608 37.6763 90.0348 38.8079 90.0348H40.5004V89.3274C40.5004 87.6912 39.9168 86.463 38.7494 85.6427C37.5822 84.8268 36.096 84.4145 34.2911 84.4145C32.8589 84.4145 31.5254 84.6619 30.2819 85.1523C29.0381 85.6427 27.9695 86.3067 27.0626 87.1444L23.5067 83.707C25.0108 82.2141 26.7709 81.1421 28.7823 80.4867C30.7936 79.8314 32.8723 79.5059 35.0184 79.5059C36.9357 79.5059 38.5564 79.7142 39.8719 80.1352C41.1874 80.5518 42.2784 81.09 43.1449 81.7453C44.0114 82.4007 44.6759 83.1559 45.1473 84.0108C45.6187 84.8658 45.9555 85.7295 46.1621 86.6019C46.3686 87.4742 46.4898 88.3205 46.5303 89.1408C46.5662 89.9611 46.5886 90.6772 46.5886 91.2977V106.358H40.5004V102.747ZM40.1053 94.6136H38.6957C37.7527 94.6136 36.7021 94.6483 35.5349 94.7221C34.3675 94.7958 33.2674 94.9696 32.2348 95.2385C31.1976 95.512 30.3267 95.9112 29.6083 96.4408C28.8945 96.9659 28.5353 97.7037 28.5353 98.6499C28.5353 99.2704 28.6745 99.787 28.9574 100.204C29.2401 100.62 29.6083 100.976 30.0573 101.267C30.5109 101.558 31.0181 101.766 31.5793 101.896C32.1451 102.022 32.7062 102.087 33.272 102.087C35.6066 102.087 37.3261 101.549 38.4352 100.477C39.5441 99.405 40.1009 97.9381 40.1009 96.0849V94.6136H40.1053Z" fill="#757575"/>
<path d="M50.207 80.1568H56.6409V84.2495H56.7531C57.3547 83.0126 58.3245 81.9145 59.658 80.9467C60.9915 79.9832 62.7918 79.5015 65.0502 79.5015C69.3019 79.5015 72.126 81.1203 73.5179 84.358C74.4966 82.6871 75.7179 81.4588 77.186 80.6733C78.6542 79.8921 80.4052 79.5015 82.4344 79.5015C84.2393 79.5015 85.7659 79.7922 87.0051 80.3738C88.2488 80.9554 89.2545 81.7583 90.0266 82.7739C90.799 83.7938 91.3511 84.983 91.6923 86.3457C92.0291 87.7085 92.1998 89.1755 92.1998 90.7379V106.34H85.4247V91.5061C85.4247 90.7074 85.3484 89.935 85.2002 89.1885C85.0475 88.442 84.7871 87.7866 84.41 87.2224C84.0328 86.6582 83.5255 86.2112 82.888 85.8857C82.2459 85.5602 81.4199 85.3953 80.4051 85.3953C79.3501 85.3953 78.4566 85.5862 77.7248 85.9681C76.9929 86.3501 76.3869 86.8579 75.9199 87.4959C75.4485 88.1338 75.1117 88.8586 74.9051 89.6789C74.6986 90.4992 74.5954 91.3238 74.5954 92.1614V106.349H67.8204V90.7423C67.8204 89.106 67.4612 87.804 66.7474 86.8405C66.0335 85.877 64.8481 85.3953 63.1915 85.3953C62.0645 85.3953 61.1127 85.5776 60.3404 85.9421C59.5682 86.3067 58.9308 86.7971 58.4233 87.4134C57.916 88.034 57.5478 88.7415 57.3234 89.54C57.0988 90.3385 56.9866 91.1763 56.9866 92.0486V106.345H50.2116V80.1568H50.207Z" fill="#757575"/>
<path d="M113.145 102.747H112.974C111.995 104.24 110.752 105.321 109.248 105.993C107.744 106.666 106.087 107.004 104.282 107.004C103.038 107.004 101.826 106.839 100.641 106.514C99.4554 106.184 98.4003 105.694 97.48 105.038C96.5596 104.383 95.8143 103.567 95.2485 102.582C94.6828 101.601 94.3999 100.455 94.3999 99.1446C94.3999 97.7254 94.6649 96.5189 95.1902 95.5163C95.7155 94.518 96.4204 93.6805 97.3049 93.0078C98.1894 92.3351 99.2129 91.8013 100.38 91.3977C101.548 90.9984 102.76 90.6988 104.022 90.4992C105.283 90.2997 106.554 90.1737 107.833 90.1173C109.113 90.0608 110.316 90.0348 111.448 90.0348H113.14V89.3274C113.14 87.6912 112.557 86.463 111.389 85.6427C110.222 84.8268 108.736 84.4145 106.931 84.4145C105.499 84.4145 104.165 84.6619 102.921 85.1523C101.678 85.6427 100.609 86.3067 99.7024 87.1444L96.1465 83.707C97.6505 82.2141 99.4105 81.1421 101.422 80.4867C103.433 79.8314 105.512 79.5059 107.658 79.5059C109.575 79.5059 111.196 79.7142 112.512 80.1352C113.827 80.5518 114.918 81.09 115.785 81.7453C116.651 82.4007 117.316 83.1559 117.787 84.0108C118.259 84.8658 118.595 85.7295 118.802 86.6019C119.008 87.4742 119.129 88.3205 119.17 89.1408C119.206 89.9611 119.228 90.6772 119.228 91.2977V106.358H113.131V102.747H113.145ZM112.75 94.6136H111.34C110.397 94.6136 109.346 94.6483 108.179 94.7221C107.012 94.7958 105.912 94.9696 104.879 95.2385C103.842 95.512 102.971 95.9112 102.253 96.4408C101.539 96.9659 101.18 97.7037 101.18 98.6499C101.18 99.2704 101.319 99.787 101.601 100.204C101.884 100.62 102.253 100.976 102.702 101.267C103.155 101.558 103.662 101.766 104.224 101.896C104.789 102.022 105.35 102.087 105.916 102.087C108.251 102.087 109.97 101.549 111.079 100.477C112.188 99.405 112.745 97.9381 112.745 96.0849V94.6136H112.75Z" fill="#757575"/>
<path d="M123.134 80.1568H129.568V84.358H129.68C130.318 83.0473 131.297 81.9102 132.617 80.9467C133.932 79.9832 135.719 79.5015 137.977 79.5015C139.782 79.5015 141.318 79.7922 142.579 80.3738C143.841 80.9554 144.865 81.7192 145.655 82.6654C146.445 83.6115 147.011 84.7009 147.348 85.9378C147.684 87.1747 147.855 88.468 147.855 89.8134V106.345H141.08V93.0859C141.08 92.3568 141.044 91.5494 140.968 90.6598C140.891 89.77 140.694 88.9324 140.375 88.1512C140.056 87.37 139.558 86.7146 138.88 86.1852C138.202 85.66 137.282 85.3953 136.114 85.3953C134.987 85.3953 134.035 85.5776 133.263 85.9421C132.491 86.3067 131.853 86.7971 131.346 87.4134C130.839 88.034 130.471 88.7414 130.246 89.54C130.022 90.3385 129.909 91.1763 129.909 92.0486V106.345H123.134V80.1568Z" fill="#757575"/>
<path d="M144.506 75.2785L151.932 79.5708L163.852 73L144.506 75.2785Z" fill="#757575"/>
<path d="M151.972 87.9385L151.932 79.5708L163.852 73L151.972 87.9385Z" fill="#757575"/>
<path d="M170.389 106.544C167.848 106.544 165.782 104.548 165.782 102.091C165.782 99.635 167.848 97.6387 170.389 97.6387C172.93 97.6387 174.995 99.635 174.995 102.091C175 104.548 172.93 106.544 170.389 106.544ZM170.389 98.2767C168.216 98.2767 166.447 99.9865 166.447 102.087C166.447 104.188 168.216 105.902 170.389 105.902C172.562 105.902 174.331 104.192 174.331 102.087C174.331 99.9823 172.566 98.2767 170.389 98.2767Z" fill="#757575"/>
<path d="M171.143 103.541L170.483 102.586H170.111V103.541H169.639V100.863H170.663C170.793 100.863 170.905 100.876 171.013 100.907C171.116 100.933 171.206 100.976 171.282 101.028C171.359 101.08 171.417 101.141 171.466 101.215C171.516 101.289 171.552 101.367 171.574 101.454C171.597 101.54 171.61 101.636 171.61 101.736C171.61 101.953 171.556 102.126 171.453 102.261C171.35 102.395 171.197 102.491 171.004 102.543V102.552L171.713 103.546H171.143V103.541ZM170.106 102.174H170.555C170.739 102.174 170.878 102.135 170.973 102.053C171.067 101.97 171.116 101.862 171.116 101.723C171.116 101.579 171.071 101.471 170.977 101.393C170.883 101.315 170.753 101.271 170.586 101.271H170.106V102.174Z" fill="#757575"/>
<path d="M152.255 92.6646V106.344H159.03V84.1494L152.255 92.6646Z" fill="#757575"/>
</g>
<defs>
<clipPath id="clip0_317_10234">
<rect width="170" height="34" fill="white" transform="translate(5 73)"/>
</clipPath>
</defs>
</svg>
