<svg width="179" height="180" viewBox="0 0 179 180" fill="none" xmlns="http://www.w3.org/2000/svg">
<path d="M41.1267 83.7627C39.7742 83.1895 38.4114 82.6445 37.1139 81.9544C35.4593 81.0733 33.8253 79.8488 33.1971 78.0405C32.3733 75.6695 33.6674 72.8491 35.8163 71.6424C37.9652 70.4357 40.701 70.7046 42.8362 71.9361C44.9713 73.1676 46.547 75.2449 47.6351 77.5026C47.7896 77.5026 47.9441 77.5062 48.0951 77.5097C48.0951 75.3263 48.0951 73.1464 48.0951 70.963C45.7025 70.0287 43.2275 69.2573 40.677 69.052C38.1265 68.8468 35.4868 69.2325 33.2452 70.5029C29.5688 72.5873 27.5949 77.124 28.7174 81.3351C28.9028 82.0358 29.1809 82.7153 29.5447 83.3381C30.7565 85.4153 32.8333 86.799 34.965 87.8253C37.0967 88.8515 39.3554 89.6053 41.391 90.8226C42.5959 91.541 43.739 92.4505 44.453 93.6819C45.2803 95.1152 45.4382 96.9801 44.7173 98.477C43.6257 100.742 40.8761 101.665 38.4252 101.503C33.9764 101.212 29.864 97.8683 28.5527 93.4732C28.3673 93.4767 28.1854 93.4838 28 93.4873C28.1064 96.3396 28.2094 99.1883 28.3158 102.041C31.4259 103.364 34.7178 104.404 38.0819 104.39C41.4459 104.376 44.9164 103.198 47.1992 100.65C48.5826 99.1034 49.4785 97.1075 49.7463 95.0196C49.9865 93.1405 49.7085 91.1729 48.8229 89.5168C47.6901 87.3971 45.6682 85.932 43.5605 84.8668C42.7641 84.4634 41.9471 84.106 41.1267 83.7592V83.7627Z" fill="#757575"/>
<path d="M99.9462 78.8082V79.2541C99.4931 79.4487 99.0606 79.7318 98.6418 80.0963C98.223 80.4608 97.7939 81.0058 97.3614 81.7383C96.9288 82.4709 96.4311 83.4193 95.8853 84.5941C95.3361 85.7726 94.6873 87.2695 93.9492 89.0919L87.7086 104.245H86.7405L79.7241 87.004C79.0101 85.2842 78.3922 83.8935 77.8601 82.8318C77.3246 81.7737 76.8406 80.9633 76.4081 80.4007C75.9755 79.838 75.5293 79.4594 75.0762 79.2577V78.8118H85.237V79.2577C84.2999 79.5903 83.8365 80.2308 83.8365 81.1934C83.8365 81.4942 83.8674 81.795 83.9326 82.1135C83.9978 82.4284 84.1111 82.8247 84.269 83.3025C84.4269 83.7802 84.6569 84.4066 84.9452 85.1674L89.5416 96.941L92.4457 89.0424C93.0876 87.2836 93.5339 85.9318 93.7776 84.9692C94.0179 84.0067 94.1415 83.2105 94.1415 82.5841C94.1415 81.0624 93.2558 79.9477 91.4811 79.2577V78.8118H99.9496V78.8047L99.9462 78.8082Z" fill="#757575"/>
<path d="M125.971 78.8087V79.2546C125.518 79.4492 125.086 79.7323 124.667 80.0968C124.248 80.4613 123.819 81.0063 123.386 81.7388C122.954 82.4714 122.456 83.4197 121.91 84.5946C121.361 85.773 120.712 87.2699 119.974 89.0924L113.737 104.245H112.769L105.753 87.0045C105.039 85.2847 104.421 83.8939 103.889 82.8323C103.353 81.7742 102.869 80.9638 102.437 80.4012C102.004 79.8385 101.558 79.4599 101.105 79.2581V78.8123H111.265V79.2581C110.328 79.5908 109.865 80.2313 109.865 81.1939C109.865 81.4947 109.896 81.7954 109.961 82.1139C110.026 82.4289 110.14 82.8252 110.297 83.303C110.455 83.7807 110.685 84.4071 110.974 85.1679L115.57 96.9414L118.474 89.0429C119.116 87.2841 119.562 85.9323 119.806 84.9697C120.046 84.0072 120.17 83.211 120.17 82.5846C120.17 81.0629 119.284 79.9482 117.51 79.2581V78.8123H125.978V78.8052L125.971 78.8087Z" fill="#757575"/>
<path d="M143.528 78.8083V79.2542C145.303 79.916 146.188 81.0272 146.188 82.5807C146.188 83.2071 146.068 84.0068 145.825 84.9658C145.584 85.9284 145.124 87.2873 144.445 89.039L141.592 96.8915L136.996 85.164C136.704 84.3678 136.481 83.7379 136.319 83.2743C136.161 82.8107 136.045 82.425 135.983 82.103C135.918 81.788 135.887 81.4801 135.887 81.1829C135.887 80.2203 136.35 79.5763 137.287 79.2472V78.8013H127.127V79.2472C127.58 79.4418 128.023 79.8275 128.458 80.3902C128.891 80.9528 129.375 81.7632 129.911 82.8213C130.446 83.8794 131.064 85.2737 131.774 86.9936L138.599 103.64L138.18 104.564L137.926 105.119C137.844 105.31 137.768 105.498 137.679 105.682C137.514 106.029 137.335 106.368 137.119 106.687C135.973 108.393 133.721 108.969 131.987 107.798C131.795 107.667 131.617 107.522 131.459 107.359C131.273 107.165 131.109 106.942 130.944 106.733C129.602 107.058 129.001 109.256 129.708 110.48C130.274 111.461 131.397 111.963 132.523 111.999C132.797 112.006 133.072 111.984 133.336 111.938C135.43 111.567 136.927 109.932 137.977 108.081L137.998 108.042L138.056 107.933L138.101 107.841L138.139 107.763L138.176 107.685L138.214 107.607L138.317 107.398L138.437 107.143L138.558 106.874L138.705 106.552L139.175 105.505L139.594 104.571L139.766 104.192L146.003 89.0885C146.748 87.266 147.39 85.7656 147.939 84.5907C148.488 83.4123 148.976 82.471 149.415 81.7597C149.848 81.0484 150.273 80.5034 150.696 80.1177C151.114 79.739 151.547 79.4453 152 79.2472V78.8013H143.532L143.525 78.8083H143.528Z" fill="#757575"/>
<path d="M72.3549 86.555C72.0288 84.5025 71.5001 82.8358 70.7552 81.5618C70.0103 80.2879 69.0045 79.3572 67.731 78.7768C66.4575 78.1964 64.8544 77.9062 62.9183 77.9062C60.9823 77.9062 59.1938 78.2 57.5255 79.0422C56.482 79.573 55.5071 80.348 54.9785 81.4167C54.7107 81.9723 54.5631 82.6199 54.7485 83.2144C54.9338 83.8089 55.4316 84.2654 56.0014 84.4636C56.5747 84.6582 57.2097 84.6193 57.783 84.4247C57.8036 82.8429 58.3185 81.1372 59.5405 80.1038C60.5223 79.2793 61.9709 79.1767 63.1552 79.6473C63.5809 79.8172 63.9825 80.0791 64.2949 80.4259C64.9059 81.1053 65.4483 81.9157 65.8979 83.6674C61.7032 85.819 58.648 87.9741 56.7292 90.1257C54.8137 92.2772 53.8525 94.6164 53.8525 97.1325C53.8525 98.6223 54.1581 99.9033 54.7691 100.983C55.3801 102.062 56.252 102.897 57.3779 103.492C58.5039 104.086 59.8152 104.387 61.2981 104.387C63.0042 104.387 64.494 103.923 65.7469 102.993C67.0067 102.066 68.0503 100.692 68.8913 98.8665C69.2483 100.689 69.8284 101.998 70.6351 102.763C71.4418 103.527 72.6844 103.906 74.3596 103.906H76.5359V103.46C75.537 103.198 74.8539 101.899 74.466 99.6167L72.3411 86.548L72.3549 86.555ZM66.739 100.466C65.867 101.061 64.9814 101.361 64.0786 101.361C62.6575 101.361 61.5453 100.83 60.742 99.7724C59.3483 97.9358 59.3106 95.2144 59.774 93.031C60.2374 90.8476 61.3771 88.7632 62.9904 87.2203C63.9653 86.2932 65.1118 85.5536 66.1932 84.775C66.3202 85.3058 68.7265 97.9818 68.7265 97.9818C68.2425 98.8771 67.6109 99.8644 66.739 100.459V100.466Z" fill="#757575"/>
</svg>
