<svg width="179" height="180" viewBox="0 0 179 180" fill="none" xmlns="http://www.w3.org/2000/svg">
<path fill-rule="evenodd" clip-rule="evenodd" d="M18.9001 79.9043L19.7533 75.9127C20.0893 74.3358 21.481 73.2104 23.0919 73.2104H37.4718C38.5024 73.2104 39.4783 73.6766 40.1265 74.4778C40.7748 75.2791 41.0267 76.3315 40.8116 77.3404L39.9707 81.2737C39.6334 82.847 38.242 83.9723 36.6311 83.9723H33.3086H12.0771C11.7461 83.9723 11.4608 84.2054 11.3915 84.5296L10.5496 88.4593C10.5056 88.6668 10.5582 88.8854 10.6909 89.0493C10.8241 89.2132 11.0242 89.3079 11.2358 89.3079H26.1835L27.0355 85.3309H29.8092L28.9576 89.3079H34.0308C35.0615 89.3079 36.0373 89.774 36.6856 90.5752C37.3348 91.3801 37.5855 92.429 37.3703 93.4379L36.5297 97.3711C36.1924 98.9444 34.802 100.073 33.1912 100.073H17.9318C17.6007 100.073 17.3141 100.303 17.2448 100.627L16.4043 104.56C16.3603 104.768 16.4115 104.983 16.5443 105.147C16.6774 105.311 16.8789 105.409 17.0905 105.409H22.1761C22.5072 105.409 22.7924 105.176 22.8614 104.852L23.5942 101.428H26.3682L25.5146 105.42C25.1787 106.997 23.7869 108.122 22.1761 108.122H17.0908C16.0602 108.122 15.0843 107.656 14.4361 106.855C13.7878 106.054 13.5359 105.001 13.751 103.992L14.5919 100.059C14.9292 98.4856 16.3206 97.3602 17.9314 97.3602H24.4643L25.3146 93.3795H28.0887L27.2381 97.3602H33.1912C33.5222 97.3602 33.8075 97.1272 33.8765 96.803L34.717 92.8697C34.7614 92.6621 34.7098 92.4472 34.577 92.2833C34.4442 92.1194 34.2428 92.0211 34.0308 92.0211H11.2362C10.2055 92.0211 9.22968 91.5549 8.58143 90.7537C7.93318 89.9525 7.68251 88.9036 7.89767 87.8947L8.7386 83.9615C9.07458 82.3845 10.4659 81.2591 12.0768 81.2591H36.6308C36.9619 81.2591 37.2484 81.0297 37.3178 80.7055L38.1583 76.7723C38.2023 76.5647 38.1511 76.3498 38.017 76.1822C37.8838 76.0184 37.6837 75.9237 37.4721 75.9237H23.0922C22.7612 75.9237 22.4742 76.1531 22.4052 76.4773L21.6738 79.9043H18.9001Z" fill="#757575"/>
<path d="M168.834 96.9471L172.3 85.7427H177L170.97 102.265H166.634L162.963 90.791L159.307 102.265H154.955L148.926 85.7427H153.768L157.234 96.9155L160.858 85.7427H165.163L168.834 96.9471Z" fill="#757575"/>
<path d="M146.061 100.176C144.368 101.837 142.247 102.66 139.731 102.66C137.199 102.66 135.078 101.837 133.385 100.176C131.691 98.514 130.837 96.4567 130.837 93.9879C130.837 91.5349 131.691 89.4776 133.385 87.8159C135.078 86.1701 137.199 85.3472 139.731 85.3472C142.247 85.3472 144.368 86.1701 146.061 87.8159C147.754 89.4776 148.609 91.5349 148.609 93.9879C148.609 96.4567 147.754 98.514 146.061 100.176ZM136.487 97.2638C137.357 98.1342 138.433 98.5773 139.731 98.5773C141.029 98.5773 142.105 98.1342 142.975 97.2638C143.83 96.3934 144.257 95.3014 144.257 94.0037C144.257 92.706 143.83 91.6141 142.975 90.7437C142.105 89.8733 141.029 89.4302 139.731 89.4302C138.433 89.4302 137.357 89.8733 136.487 90.7437C135.616 91.6141 135.189 92.706 135.189 94.0037C135.189 95.3014 135.616 96.3934 136.487 97.2638Z" fill="#757575"/>
<path d="M113.112 85.743V85.015C113.112 80.568 115.518 78.6689 120.725 78.6689V82.4987C118.43 82.4987 117.322 83.3058 117.322 85.2524V85.743H120.725V89.5886H117.322V102.265H113.112V89.5886H110.517V85.743H113.112ZM123.621 102.265V78.9222H127.83V102.265H123.621Z" fill="#757575"/>
<path d="M107.605 102.265H103.396V78.9224H107.605V102.265Z" fill="#757575"/>
<path d="M97.825 100.176C96.1316 101.837 94.011 102.66 91.4948 102.66C88.9627 102.66 86.8421 101.837 85.1487 100.176C83.4554 98.514 82.6008 96.4567 82.6008 93.9879C82.6008 91.5349 83.4554 89.4776 85.1487 87.8159C86.8421 86.1701 88.9627 85.3472 91.4948 85.3472C94.011 85.3472 96.1316 86.1701 97.825 87.8159C99.5183 89.4776 100.373 91.5349 100.373 93.9879C100.373 96.4567 99.5183 98.514 97.825 100.176ZM88.2505 97.2638C89.1209 98.1342 90.1971 98.5773 91.4948 98.5773C92.7925 98.5773 93.8686 98.1342 94.739 97.2638C95.5936 96.3934 96.0209 95.3014 96.0209 94.0037C96.0209 92.706 95.5936 91.6141 94.739 90.7437C93.8686 89.8733 92.7925 89.4302 91.4948 89.4302C90.1971 89.4302 89.1209 89.8733 88.2505 90.7437C87.3801 91.6141 86.9528 92.706 86.9528 94.0037C86.9528 95.3014 87.3801 96.3934 88.2505 97.2638Z" fill="#757575"/>
<path d="M78.043 100.176C76.3497 101.837 74.229 102.66 71.7128 102.66C69.1807 102.66 67.0601 101.837 65.3668 100.176C63.6734 98.514 62.8188 96.4567 62.8188 93.9879C62.8188 91.5349 63.6734 89.4776 65.3668 87.8159C67.0601 86.1701 69.1807 85.3472 71.7128 85.3472C74.229 85.3472 76.3497 86.1701 78.043 87.8159C79.7363 89.4776 80.5909 91.5349 80.5909 93.9879C80.5909 96.4567 79.7363 98.514 78.043 100.176ZM68.4686 97.2638C69.339 98.1342 70.4151 98.5773 71.7128 98.5773C73.0105 98.5773 74.0866 98.1342 74.957 97.2638C75.8116 96.3934 76.2389 95.3014 76.2389 94.0037C76.2389 92.706 75.8116 91.6141 74.957 90.7437C74.0866 89.8733 73.0105 89.4302 71.7128 89.4302C70.4151 89.4302 69.339 89.8733 68.4686 90.7437C67.5982 91.6141 67.1709 92.706 67.1709 94.0037C67.1709 95.3014 67.5982 96.3934 68.4686 97.2638Z" fill="#757575"/>
<path d="M47.9746 79.9038H63.99V84.1134H58.2137V102.265H53.7509V84.1134H47.9746V79.9038Z" fill="#757575"/>
</svg>
