<svg width="179" height="180" viewBox="0 0 179 180" fill="none" xmlns="http://www.w3.org/2000/svg">
<path d="M21.3306 82.7075H15.5198V103.854H21.3306V82.7075Z" fill="#757575"/>
<path d="M30.0861 75.0396H7V79.8617H30.0861V75.0396Z" fill="#757575"/>
<path d="M90 78.5178V79.8617V98.9921V103.577V103.854H109.042V98.9921H94.79V79.8617H109.042V75.0396H90V78.5178Z" fill="#757575"/>
<path d="M147.244 75.0396H141.512V103.854H147.244V75.0396Z" fill="#757575"/>
<path d="M107.079 87.4507H98.5591V91.2847H107.079V87.4507Z" fill="#757575"/>
<path d="M173 75.0396H152.976V79.8617H166.797L151.995 98.9921V103.854H173V98.9921H158.08L173 79.8617V75.0396Z" fill="#757575"/>
<path d="M53.6041 83.3795V82.3518C53.6041 78.3202 50.3453 75.0396 46.3406 75.0396H39.3519H36.1717H34.5227V80.5336V90.6522V103.814H39.3127V90.6522V87.0158V79.585H39.5483H45.2805C47.0866 79.585 48.5393 81.0475 48.5393 82.8656C48.5393 83.7747 48.1859 84.6048 47.597 85.1977C47.008 85.7905 46.1835 86.1463 45.2805 86.1463H44.456H42.2966V90.6522H42.061L42.2966 91.0079L51.798 103.814H57.5303L47.7148 90.5336C51.052 89.9012 53.6041 86.9368 53.6041 83.3795Z" fill="#757575"/>
<path d="M128.909 88.913H128.006C131.775 88.913 134.837 85.83 134.837 82.0356V81.8775C134.837 78.083 131.775 75 128.006 75H119.525H119.486H114.696V103.814H119.486H119.525H128.909C130.95 103.814 132.796 102.984 134.131 101.64C135.465 100.296 136.29 98.4387 136.29 96.3834C136.329 92.2727 132.992 88.913 128.909 88.913ZM129.772 98.3597C129.066 99.0711 128.084 99.5059 127.024 99.5059H119.564V78.9526H125.728C127.809 78.9526 129.537 80.6522 129.537 82.7866V83.0237C129.537 85.1186 127.849 86.8577 125.728 86.8577H122.823V88.9526V91.6403H127.024C129.184 91.6403 130.95 93.419 130.95 95.5929C130.95 96.6601 130.479 97.6482 129.772 98.3597Z" fill="#757575"/>
<path d="M83.6789 75.0396V92.6285C83.6789 99.4664 78.1822 105 71.3899 105C64.5975 105 59.1008 99.4664 59.1008 92.6285V75.0396H64.2442V92.7471C64.2442 96.7392 67.4636 99.9803 71.4291 99.9803C75.3946 99.9803 78.6141 96.7392 78.6141 92.7471V75.0396H83.6789Z" fill="#757575"/>
</svg>
