<svg width="179" height="180" viewBox="0 0 179 180" fill="none" xmlns="http://www.w3.org/2000/svg">
<path d="M61.3951 81.9452V78.1812H81.268V81.9452H72.4669L73.3978 80.9484V104.529H69.2371V80.9484L70.1679 81.9452H61.381H61.3951Z" fill="#757575"/>
<path d="M85.8448 78.1655H90.5134L96.6769 100.645H95.5909L101.754 80.174H104.575L110.866 100.363H109.879L116.522 78.1655H121.204L112.544 104.514H108.172L103.038 88.3268H103.518L98.3271 104.514H93.9548L85.859 78.1655H85.8448Z" fill="#757575"/>
<path d="M125.1 104.508L125.1 78.1582H129.002V104.508H125.1Z" fill="#757575"/>
<path d="M134.927 104.528V78.1655H150.541V81.9295H139.074V89.3683H149.61V93.1174H139.074V104.514H134.913L134.927 104.528Z" fill="#757575"/>
<path d="M48.746 85.769L29.141 65V69.5674L44.4301 85.8731L42.8081 87.5691L40.5937 89.8751L40.1283 90.3661L29 102V106.731L42.7235 92.1514L44.4301 93.9665L29 111.254V116L48.746 93.8623L44.9237 89.8156L48.746 85.769Z" fill="#757575"/>
<path d="M41.8068 86.5127L29.1411 73.0933V77.6606L39.6206 88.8485L41.8068 86.5127Z" fill="#757575"/>
</svg>
