<svg width="179" height="180" viewBox="0 0 179 180" fill="none" xmlns="http://www.w3.org/2000/svg">
<path d="M1 98.8857V79H5.588V97.2743L7.30866 99.0228H13.9206L15.6413 97.2743V79H20.2292V98.8857L16.181 103H5.04829L1 98.8857Z" fill="#757575"/>
<path d="M24.6218 79H39.4318L42.805 82.4286V89.1486L41.4558 90.5543L43.8511 93.0228V99.2972L40.2076 103H24.6218V79ZM37.0699 89.0457L38.2847 87.8114V84.1086L37.1038 82.9086H29.1087V89.0457H37.0699ZM37.88 99.0914L39.3303 97.6172V94.2572L37.88 92.7828H29.1087V99.0914H37.88Z" fill="#757575"/>
<path d="M47.2222 79H64.2921V82.9428H51.8102V89.0114H63.3138V92.8857H51.8102V99.0572H64.2921V103H47.2222V79Z" fill="#757575"/>
<path d="M86.235 95.0457V103H81.647V96.1086L79.6231 93.8114H72.2684V103H67.6804V79H82.4904L86.1001 82.7028V89.9714L83.8063 92.3372L86.235 95.0457ZM72.2684 89.9714H80.3988L81.5798 88.7714V84.1086L80.3988 82.9086H72.2684V89.9714Z" fill="#757575"/>
<path d="M90.4456 79H105.559L109.608 83.1143V98.8857L105.559 103H90.4456V79ZM103.299 99.0228L105.02 97.2743V84.7257L103.299 82.9772H95.0336V99.0228H103.299Z" fill="#757575"/>
<path d="M113.672 98.8857V79H118.26V97.2743L119.981 99.0228H126.593L128.313 97.2743V79H132.901V98.8857L128.853 103H117.72L113.672 98.8857Z" fill="#757575"/>
<path d="M136.956 99.0572V82.9428L140.836 79H152.373L156.186 82.8743V86.5428H151.597V84.5886L150.012 82.9772H143.265L141.544 84.7257V97.2743L143.265 99.0228H150.012L151.597 97.4114V95.4572H156.186V99.1257L152.373 103H140.836L136.956 99.0572Z" fill="#757575"/>
<path d="M159.4 79H163.988V89.0457H167.564L173.265 79H178.427L171.511 90.9657L179 103H173.737L167.53 93.0228H163.988V103H159.4V79Z" fill="#757575"/>
</svg>
