<svg width="179" height="180" viewBox="0 0 179 180" fill="none" xmlns="http://www.w3.org/2000/svg">
<g clip-path="url(#clip0_317_10260)">
<path d="M59.1733 84.2908L51.4982 97.7132C49.1231 101.868 44.7332 104.426 39.9829 104.426V104.421L43.8197 97.7132L47.6563 91.0055L51.493 84.2942L55.3331 77.583L59.1733 84.2908Z" fill="#757575"/>
<path d="M59.1733 84.2908L51.4982 97.7132C49.1231 101.868 44.7332 104.426 39.9829 104.426V104.421L43.8197 97.7132L47.6563 91.0055L51.493 84.2942L55.3331 77.583L59.1733 84.2908Z" fill="#757575"/>
<path d="M70.6885 77.583L66.8517 84.2942L63.0117 91.0055L59.1749 97.7132L59.1716 97.7185C56.7998 101.87 52.4118 104.426 47.6649 104.426H39.9846C44.7333 104.426 49.1246 101.866 51.4999 97.7132L59.1749 84.2908L55.3383 77.583H70.6885Z" fill="#757575"/>
<path d="M55.3385 77.5831H24.6345L27.0669 73.3289L28.4695 70.8736L43.8232 70.8701C48.5249 70.8701 52.8766 73.3779 55.2674 77.4571L55.3385 77.5831Z" fill="#757575"/>
<path d="M55.3385 77.5831H24.6345L27.0669 73.3289L28.4695 70.8736L43.8232 70.8701C48.5249 70.8701 52.8766 73.3779 55.2674 77.4571L55.3385 77.5831Z" fill="#757575"/>
<path d="M55.269 77.4581C52.8782 73.3771 48.5267 70.8711 43.8249 70.8711L28.4712 70.8746L27.0686 73.3299L24.6345 77.5806L20.7978 70.8729L16.9629 64.1651L24.6345 64.1616L32.3096 64.1651H39.9951C40.5881 64.1651 41.1741 64.2036 41.7514 64.2806C42.0426 64.3191 42.3288 64.3664 42.6148 64.4276C42.7344 64.4504 42.854 64.4766 42.9737 64.5064C43.2822 64.5764 43.5892 64.6586 43.8907 64.7531C44.1612 64.8371 44.4283 64.9281 44.6934 65.0314C44.8461 65.0891 44.997 65.1486 45.1477 65.2151C45.5274 65.3744 45.8984 65.5564 46.259 65.7506C46.2625 65.7524 46.2641 65.7559 46.266 65.7524C46.897 66.0954 47.4969 66.4874 48.0656 66.9249C48.1817 67.0159 48.2961 67.1051 48.4088 67.1979C48.629 67.3834 48.8456 67.5724 49.0555 67.7701C49.1596 67.8699 49.2635 67.9714 49.3675 68.0746C50.1859 68.8989 50.9053 69.8369 51.4983 70.8729H51.5001L55.269 77.4581Z" fill="#757575"/>
<path d="M24.6331 91.0039L32.3134 104.426H32.3099L24.6331 91.0039Z" fill="#757575"/>
<path d="M39.9849 104.421V104.426H32.3097L24.6329 91.0037C22.282 86.8913 22.2578 81.8356 24.5636 77.7055L24.6329 77.583L26.039 80.0401L28.4713 84.2942L32.3115 91.0055L36.1481 97.7114L39.9849 104.421Z" fill="#757575"/>
<path d="M39.9849 104.421V104.426H32.3097L24.6329 91.0037C22.282 86.8913 22.2578 81.8356 24.5636 77.7055L24.6329 77.583L26.039 80.0401L28.4713 84.2942L32.3115 91.0055L36.1481 97.7114L39.9849 104.421Z" fill="#757575"/>
<path d="M39.9846 104.426L32.3094 117.84L28.4728 111.134L26.1236 107.03L24.6344 104.426L20.7942 97.7135L20.7925 97.7099C20.5688 97.3214 20.3695 96.9224 20.1874 96.5199C20.0088 96.1157 19.8476 95.7044 19.7089 95.288C19.6708 95.1707 19.6309 95.0518 19.598 94.9345C19.5511 94.7822 19.5078 94.6281 19.4662 94.4759C19.3102 93.8862 19.194 93.2859 19.1177 92.6822C19.1021 92.5562 19.09 92.4337 19.0761 92.3077C19.064 92.1764 19.0536 92.0435 19.0449 91.9122C19.0414 91.8947 19.0414 91.8737 19.0414 91.8527C19.031 91.7162 19.0241 91.5797 19.0206 91.4432V91.4379C19.0154 91.3049 19.012 91.1736 19.012 91.0389C19.0102 89.5812 19.2408 88.1234 19.7089 86.7252C19.8025 86.447 19.9031 86.1722 20.0158 85.8992C20.0695 85.7627 20.1302 85.6262 20.1892 85.4931C20.3105 85.2237 20.4405 84.956 20.5792 84.6935C20.6486 84.5622 20.7197 84.431 20.7942 84.3032V84.2979L24.5616 77.7109C22.2575 81.8409 22.28 86.8967 24.6309 91.0092L32.3078 104.432H39.9846V104.426Z" fill="#757575"/>
<path d="M78.6689 108.83V105.68H83.017V104.917H78.6689V101.898H83.5441V101.123H77.7795V109.607H83.7244V108.831H78.6689V108.83Z" fill="#757575"/>
<path d="M93.7866 101.12L91.4704 104.305L91.5311 104.389L91.9714 104.935L94.7455 101.12H93.7866ZM91.9714 105.495L91.4878 106.084L91.4375 106.154L93.9444 109.602H94.9777L91.9714 105.495Z" fill="#757575"/>
<path d="M102.899 108.88C102.233 108.88 101.631 108.724 101.087 108.418C100.543 108.111 100.114 107.69 99.8077 107.156C99.5008 106.622 99.3465 106.025 99.3465 105.366C99.3465 104.701 99.5008 104.104 99.8077 103.572C100.114 103.038 100.543 102.616 101.087 102.31C101.631 102.004 102.233 101.848 102.899 101.848C103.901 101.848 104.73 102.186 105.385 102.856L105.95 102.286C105.582 101.881 105.135 101.573 104.606 101.365C104.076 101.153 103.5 101.048 102.876 101.048C102.044 101.048 101.292 101.234 100.621 101.608C99.9463 101.979 99.4209 102.496 99.0395 103.154C98.6582 103.812 98.4675 104.55 98.4675 105.366C98.4675 106.181 98.6582 106.918 99.0395 107.574C99.4209 108.236 99.9446 108.748 100.614 109.119C101.283 109.494 102.03 109.679 102.866 109.679C103.488 109.679 104.066 109.571 104.6 109.359C105.13 109.144 105.582 108.836 105.95 108.432L105.385 107.861C104.737 108.538 103.908 108.88 102.899 108.88Z" fill="#757575"/>
<path d="M116.961 101.12V104.901H111.701V101.12H110.812V109.604H111.701V105.691H116.961V109.604H117.84V101.12H116.961Z" fill="#757575"/>
<path d="M126.916 101.12H126.041L122.197 109.604H123.123L124.128 107.337H128.813L129.822 109.604H130.758L126.916 101.12ZM124.454 106.611L126.472 102.054L128.49 106.611H124.454Z" fill="#757575"/>
<path d="M141.266 101.12V108.004L135.852 101.12H135.117V109.604H136.006V102.719L141.41 109.604H142.145V101.12H141.266Z" fill="#757575"/>
<path d="M153.768 108.225C153.166 108.661 152.434 108.88 151.569 108.88C150.891 108.88 150.276 108.724 149.732 108.418C149.187 108.112 148.759 107.69 148.449 107.156C148.138 106.622 147.981 106.025 147.981 105.366C147.981 104.701 148.138 104.101 148.449 103.565C148.759 103.03 149.191 102.608 149.738 102.303C150.286 102.001 150.902 101.848 151.583 101.848C152.606 101.848 153.45 102.182 154.116 102.844L154.667 102.274C154.3 101.869 153.849 101.565 153.31 101.36C152.776 101.153 152.186 101.05 151.545 101.05C150.696 101.05 149.934 101.236 149.263 101.61C148.593 101.981 148.064 102.497 147.679 103.156C147.294 103.813 147.102 104.552 147.102 105.367C147.102 106.183 147.296 106.92 147.679 107.576C148.064 108.238 148.591 108.75 149.263 109.121C149.934 109.496 150.694 109.681 151.533 109.681C152.128 109.681 152.693 109.587 153.227 109.401C153.764 109.216 154.229 108.95 154.621 108.601V105.367H153.768V108.225Z" fill="#757575"/>
<path d="M160.982 108.83V105.68H165.33V104.917H160.982V101.898H165.857V101.123H160.096V109.607H166.037V108.831H160.982V108.83Z" fill="#757575"/>
<path d="M96.8382 72.3203L90.0229 88.2453L83.3013 72.3203H77.7795L87.3096 94.617H92.3583L101.92 72.3203H96.8382Z" fill="#757575"/>
<path d="M108.83 90.4773V76.4632H120.443V72.3228H103.75V94.6195H120.854V90.4791H108.83V90.4773ZM110.55 81.3037L108.83 85.3165H117.379L119.087 81.3318V81.3037H110.55Z" fill="#757575"/>
<path d="M130.035 90.4136V72.3203H124.922V94.617H139.296L141.004 90.6323L141.016 90.6044L141.098 90.4136H130.035Z" fill="#757575"/>
<path d="M156.162 72.3203H151.114L141.268 94.617H146.505L148.463 89.8395H148.475L153.605 77.3848L157.107 85.9214L158.713 89.8395H158.716L160.672 94.617H166.036L156.162 72.3203Z" fill="#757575"/>
<path d="M91.7687 105.215L91.2295 105.869L88.5267 109.604H87.5073L90.699 105.243L87.7118 101.12H88.7313L91.2642 104.588L91.7687 105.215Z" fill="#757575"/>
</g>
<defs>
<clipPath id="clip0_317_10260">
<rect width="151" height="54" fill="white" transform="translate(16 64)"/>
</clipPath>
</defs>
</svg>
