<svg width="179" height="180" viewBox="0 0 179 180" fill="none" xmlns="http://www.w3.org/2000/svg">
<path d="M37.7005 94.6943L33.5468 82.5884H29.6374L25.4837 94.6943L21.4522 82.5884H15.9546L23.4069 102.477H27.3162L31.5921 90.8649L35.868 102.477H39.7774L47.2297 82.5884H41.8543L37.7005 94.6943Z" fill="#757575"/>
<path d="M52.1166 73.0767C51.7501 73.0767 51.2614 73.0767 50.8949 73.3237C50.6506 73.4472 50.2841 73.6943 50.0397 73.9414C49.4289 74.559 49.1846 75.3002 49.1846 76.1649C49.1846 77.0296 49.5511 77.7708 50.0397 78.3884C50.6506 79.0061 51.3836 79.2531 52.2388 79.2531C53.094 79.2531 53.827 78.8825 54.4378 78.3884C54.9265 77.7708 55.293 77.0296 55.293 76.1649C55.293 75.3002 55.0486 74.559 54.4378 73.9414C54.1935 73.6943 53.827 73.4472 53.4605 73.2002C52.9718 73.2002 52.6053 73.0767 52.1166 73.0767Z" fill="#757575"/>
<path d="M54.9263 82.4648H49.4287V102.353H54.9263V82.4648Z" fill="#757575"/>
<path d="M74.7176 83.206C73.4959 82.4648 72.1521 82.0942 70.8082 82.0942C69.3422 82.0942 67.9984 82.4648 66.7767 83.0825C66.1658 83.4531 65.555 83.8236 65.0663 84.4413V82.5884H59.6909V102.477H65.0663V91.1119C65.0663 90.3707 65.1885 89.6295 65.555 89.0119C65.9215 88.3942 66.4102 87.9001 67.021 87.5295C67.6319 87.1589 68.3649 87.0354 69.0979 87.0354C69.5865 87.0354 70.1974 87.1589 70.6861 87.2825C71.1747 87.5295 71.6634 87.7766 72.0299 88.1472C72.3964 88.5178 72.6408 89.0119 72.8851 89.506C73.1294 90.0001 73.1294 90.4942 73.1294 91.1119V102.477H78.5048V89.7531C78.5048 88.3942 78.1383 87.1589 77.5275 86.0472C76.7945 84.8119 75.8171 83.9472 74.7176 83.206Z" fill="#757575"/>
<path d="M96.83 84.1943C96.3413 83.7002 95.7305 83.3296 95.1197 82.959C93.898 82.3413 92.5541 82.0943 91.2103 82.0943C89.4999 82.0943 87.7896 82.5884 86.3235 83.4531C84.8575 84.3178 83.6358 85.6766 82.9028 87.159C82.0477 88.7649 81.6812 90.6178 81.6812 92.4708C81.6812 94.3237 82.1698 96.1766 82.9028 97.7825C83.758 99.2649 84.8575 100.624 86.3235 101.488C87.7896 102.353 89.4999 102.847 91.2103 102.847C92.5541 102.847 93.898 102.6 95.1197 101.983C95.7305 101.612 96.3413 101.241 96.83 100.747V102.477H102.205V72.5825H96.7078V84.1943H96.83ZM94.7532 97.1649C93.898 97.659 93.0428 97.906 92.1876 97.906C91.2103 97.906 90.3551 97.659 89.6221 97.1649C88.8891 96.6708 88.2782 96.0531 87.7896 95.3119C87.3009 94.4472 87.1787 93.459 87.1787 92.4708C87.1787 91.4825 87.4231 90.4943 87.7896 89.6296C88.1561 88.8884 88.7669 88.1472 89.4999 87.7766C90.3551 87.2825 91.2103 87.0355 92.1876 87.159C93.165 87.159 94.0201 87.406 94.7532 87.9002C95.4862 88.3943 96.097 89.0119 96.4635 89.7531C96.9522 90.6178 97.0744 91.606 97.0744 92.5943C97.0744 93.5825 96.83 94.4472 96.4635 95.3119C96.097 96.0531 95.4862 96.6708 94.7532 97.1649Z" fill="#757575"/>
<path d="M112.346 87.0354C112.712 86.7884 113.323 86.6648 114.178 86.6648C115.033 86.6648 115.888 86.7883 116.621 87.1589C117.354 87.5295 118.087 88.0236 118.698 88.7648L121.997 85.4295C121.142 84.3178 120.042 83.4531 118.698 82.8354C117.232 82.2178 115.766 81.9707 114.178 81.9707C112.834 81.9707 111.368 82.2178 110.146 82.7119C109.047 83.206 108.07 83.9472 107.459 84.9354C106.848 85.9236 106.481 87.0354 106.481 88.2707C106.481 89.506 106.726 90.4942 107.214 91.2354C107.703 91.9766 108.314 92.5942 109.047 93.0884C109.78 93.4589 110.635 93.8295 111.49 94.0766L113.934 94.8178C114.545 94.9413 115.155 95.3119 115.766 95.5589C116.011 95.6825 116.133 95.806 116.377 96.0531C116.499 96.3001 116.621 96.5472 116.621 96.7942C116.621 97.0413 116.499 97.2884 116.377 97.4119C116.255 97.6589 116.133 97.7825 115.888 97.906C115.4 98.1531 114.789 98.2766 113.812 98.2766C112.834 98.2766 111.735 98.0295 110.88 97.6589C110.024 97.2884 109.169 96.6707 108.558 95.9295L105.26 99.1413C105.993 99.8825 106.726 100.624 107.581 101.118C108.558 101.735 109.536 102.106 110.513 102.353C111.613 102.6 112.712 102.847 113.934 102.724C116.377 102.724 118.21 102.106 119.553 100.994C120.897 99.8825 121.63 98.2766 121.63 96.3001C121.63 95.0648 121.386 94.0766 120.897 93.3354C120.409 92.5942 119.798 91.9766 119.065 91.4825C118.332 90.9884 117.477 90.6178 116.621 90.3707C115.766 90.1236 115.033 89.8766 114.178 89.6295C113.567 89.506 112.956 89.2589 112.346 88.8884C112.101 88.7648 111.979 88.6413 111.857 88.3942C111.735 88.5178 111.735 88.2707 111.735 88.0236C111.735 87.7766 111.735 87.6531 111.857 87.406C111.979 87.2825 112.101 87.0354 112.346 87.0354Z" fill="#757575"/>
<path d="M140.078 83.4531C138.367 82.5884 136.535 82.0942 134.58 82.0942C132.625 82.0942 130.793 82.5884 129.205 83.4531C127.616 84.3178 126.273 85.6766 125.417 87.1589C124.44 88.7648 123.951 90.4942 123.951 92.3472C123.951 94.2001 124.44 96.0531 125.295 97.6589C126.273 99.2648 127.494 100.624 129.205 101.488C130.915 102.477 132.748 102.847 134.58 102.847C136.535 102.847 138.367 102.353 140.078 101.488C141.666 100.624 143.01 99.2648 143.865 97.6589C144.842 96.0531 145.331 94.2001 145.209 92.3472C145.209 90.4942 144.72 88.6413 143.743 87.0354C142.887 85.5531 141.544 84.3178 140.078 83.4531ZM139.1 95.1884C138.734 95.9295 138.001 96.6707 137.268 97.0413C136.413 97.5354 135.557 97.7825 134.58 97.7825C133.603 97.7825 132.748 97.5354 131.892 97.0413C131.159 96.5472 130.549 95.9295 130.06 95.1884C129.693 94.3237 129.449 93.3354 129.449 92.4707C129.449 91.606 129.693 90.6178 130.06 89.7531C130.426 89.0119 131.037 88.2707 131.892 87.9001C132.503 87.5295 133.114 87.2825 133.847 87.1589C134.58 87.0354 135.191 87.1589 135.924 87.2825C136.535 87.406 137.268 87.7766 137.756 88.1472C138.245 88.5178 138.734 89.1354 139.1 89.7531C139.589 90.6178 139.833 91.606 139.833 92.4707C139.711 93.4589 139.467 94.3237 139.1 95.1884Z" fill="#757575"/>
<path d="M161.824 82.5884C160.969 82.2178 160.113 82.0942 159.258 82.0942C157.059 82.0942 155.349 82.8354 154.127 84.1942V82.4648H148.752V102.353H154.127V91.3589C154.127 89.8766 154.494 88.7648 155.227 88.0236C155.593 87.6531 156.082 87.406 156.57 87.1589C157.059 87.0354 157.548 86.9119 158.037 86.9119C158.525 86.9119 159.014 87.0354 159.503 87.1589C159.869 87.2825 160.358 87.5295 160.602 87.9001L164.023 83.9472C163.29 83.4531 162.679 82.9589 161.824 82.5884Z" fill="#757575"/>
</svg>
